<mxfile host="65bd71144e">
    <diagram id="8kowRNA_SFG8u6XrDtM2" name="Page-1">
        <mxGraphModel dx="5760" dy="7490" grid="1" gridSize="10" guides="1" tooltips="1" connect="1" arrows="1" fold="1" page="1" pageScale="1" pageWidth="850" pageHeight="1100" math="0" shadow="0">
            <root>
                <mxCell id="0"/>
                <mxCell id="1" parent="0"/>
                <mxCell id="2" value="おもちゃで遊ぶ" style="shape=folder;fontStyle=1;tabWidth=110;tabHeight=30;tabPosition=left;html=1;boundedLbl=1;labelInHeader=1;container=0;collapsible=0;whiteSpace=wrap;labelBackgroundColor=none;" parent="1" vertex="1">
                    <mxGeometry x="15" y="-40" width="2095" height="1220" as="geometry"/>
                </mxCell>
                <mxCell id="5" value="&lt;div&gt;&lt;span style=&quot;&quot;&gt;#### UC: ゲームをする&lt;/span&gt;&lt;/div&gt;&lt;div&gt;&lt;font color=&quot;#000000&quot;&gt;- システムは「おもちゃで遊ぶ」画面を表示する&lt;/font&gt;&lt;/div&gt;&lt;div&gt;&lt;font color=&quot;#000000&quot;&gt;- ユーザーはおもちゃをクリックして動かす&lt;/font&gt;&lt;/div&gt;&lt;div&gt;&lt;font color=&quot;#000000&quot;&gt;- システムは、外部状態・内部状態・ねこの好み・ねこの経験に応じて、ねこのアクションを決定する（詳細ロジックはUCでは記述しない）&lt;/font&gt;&lt;/div&gt;&lt;div&gt;&lt;font color=&quot;#000000&quot;&gt;&lt;br&gt;&lt;/font&gt;&lt;/div&gt;&lt;div&gt;&lt;font color=&quot;#000000&quot;&gt;&amp;nbsp;**代替コース**&amp;nbsp;&lt;/font&gt;&lt;/div&gt;&lt;div&gt;&lt;font color=&quot;#000000&quot;&gt;- ユーザーはおもちゃを動かさない：システムは、&lt;/font&gt;&lt;span style=&quot;color: rgb(0, 0, 0);&quot;&gt;外部状態・内部状態・ねこの好み・ねこの経験に応じて、ねこのアクションを決定する&lt;/span&gt;&lt;/div&gt;" style="shape=note;whiteSpace=wrap;html=1;backgroundOutline=1;darkOpacity=0.05;align=left;labelBackgroundColor=none;" parent="1" vertex="1">
                    <mxGeometry x="71.24" y="670" width="270" height="190" as="geometry"/>
                </mxCell>
                <mxCell id="3" value="" style="html=1;strokeColor=none;resizeWidth=1;resizeHeight=1;fillColor=none;part=1;connectable=0;allowArrows=0;deletable=0;whiteSpace=wrap;labelBackgroundColor=none;" parent="1" vertex="1">
                    <mxGeometry x="30" y="40" width="1010" height="354.30769230769226" as="geometry">
                        <mxPoint y="30" as="offset"/>
                    </mxGeometry>
                </mxCell>
                <mxCell id="4" value="&lt;div&gt;&lt;font color=&quot;#000000&quot;&gt;#### UC: 開始する&lt;/font&gt;&lt;/div&gt;&lt;div&gt;&lt;font color=&quot;#000000&quot;&gt;- システムはホーム画面を表示する&lt;/font&gt;&lt;/div&gt;&lt;div&gt;&lt;font color=&quot;#000000&quot;&gt;- ユーザーはフッターの「遊ぶ」ボタンを押す&lt;/font&gt;&lt;/div&gt;&lt;div&gt;&lt;font color=&quot;#000000&quot;&gt;- システムは、全てのおもちゃを取得して、「おもちゃ選択」画面を表示する&lt;/font&gt;&lt;/div&gt;&lt;div&gt;&lt;font color=&quot;#000000&quot;&gt;- ユーザーは、一つのおもちゃを選択する&lt;/font&gt;&lt;/div&gt;&lt;div&gt;&lt;font color=&quot;#000000&quot;&gt;- システムは、外部状態を初期化して、ねこの内部状態を取得し、「おもちゃで遊ぶ」画面を表示して、ゲームを起動する&lt;/font&gt;&lt;/div&gt;&lt;div&gt;&lt;font color=&quot;#000000&quot;&gt;&amp;nbsp; - UC: 「ゲームをする」をinvokeする&lt;/font&gt;&lt;/div&gt;&lt;div&gt;&lt;font color=&quot;#000000&quot;&gt;&lt;br&gt;&lt;/font&gt;&lt;/div&gt;&lt;div&gt;&lt;font color=&quot;#000000&quot;&gt;**代替コース**&lt;/font&gt;&lt;/div&gt;&lt;div&gt;&lt;font color=&quot;#000000&quot;&gt;- ユーザーがログインしていない：システムは、ログイン画面を表示する&lt;/font&gt;&lt;/div&gt;&lt;div&gt;&lt;font color=&quot;#000000&quot;&gt;- 初めに、ホーム画面以外の画面を表示している：フッターのあるすべての画面において、ユーザーはフッターの「遊ぶ」ボタンを押す&lt;/font&gt;&lt;/div&gt;&lt;div&gt;&lt;font color=&quot;#000000&quot;&gt;- おもちゃが存在しない：システムは、組み込みのおもちゃのみを選択肢として、正しくおもちゃが読み込めなかった旨とともに表示する（フォールバック）&lt;/font&gt;&lt;/div&gt;&lt;div&gt;&lt;font color=&quot;#000000&quot;&gt;- 「おもちゃ選択」画面で終了やブラウザバッグをする：何もせずに、ホーム画面（もしくは最初に表示していた画面）に戻る&lt;/font&gt;&lt;/div&gt;&lt;div&gt;&lt;font color=&quot;#000000&quot;&gt;- ねこの内部状態が取得できない：システムは、ねこの情報が取得できない旨を表示し、「おもちゃ選択」画面を表示する&lt;/font&gt;&lt;/div&gt;" style="shape=note;whiteSpace=wrap;html=1;backgroundOutline=1;darkOpacity=0.05;align=left;labelBackgroundColor=none;" parent="1" vertex="1">
                    <mxGeometry x="42.47" y="53.08" width="327.53" height="386.92" as="geometry"/>
                </mxCell>
                <mxCell id="19" style="edgeStyle=orthogonalEdgeStyle;shape=connector;curved=1;rounded=1;html=1;strokeColor=default;align=center;verticalAlign=middle;fontFamily=Helvetica;fontSize=11;fontColor=default;labelBackgroundColor=none;endArrow=classic;" parent="1" source="7" target="8" edge="1">
                    <mxGeometry relative="1" as="geometry"/>
                </mxCell>
                <mxCell id="20" style="edgeStyle=orthogonalEdgeStyle;shape=connector;curved=1;rounded=1;html=1;strokeColor=default;align=center;verticalAlign=middle;fontFamily=Helvetica;fontSize=11;fontColor=default;labelBackgroundColor=none;endArrow=classic;" parent="1" source="7" target="16" edge="1">
                    <mxGeometry relative="1" as="geometry">
                        <Array as="points">
                            <mxPoint x="465" y="300"/>
                            <mxPoint x="610" y="300"/>
                        </Array>
                    </mxGeometry>
                </mxCell>
                <mxCell id="7" value="ユーザー" style="shape=umlActor;verticalLabelPosition=bottom;verticalAlign=top;html=1;labelBackgroundColor=none;" parent="1" vertex="1">
                    <mxGeometry x="450" y="170" width="30" height="60" as="geometry"/>
                </mxCell>
                <mxCell id="12" value="フッターの&lt;div&gt;「遊ぶ」ボタンを押す&lt;/div&gt;" style="edgeStyle=orthogonalEdgeStyle;shape=connector;curved=1;rounded=1;html=1;strokeColor=default;align=center;verticalAlign=middle;fontFamily=Helvetica;fontSize=11;fontColor=default;labelBackgroundColor=none;endArrow=classic;" parent="1" source="8" target="11" edge="1">
                    <mxGeometry relative="1" as="geometry"/>
                </mxCell>
                <mxCell id="8" value="ホーム画面" style="shape=umlBoundary;whiteSpace=wrap;html=1;labelBackgroundColor=none;" parent="1" vertex="1">
                    <mxGeometry x="560" y="170" width="100" height="80" as="geometry"/>
                </mxCell>
                <mxCell id="10" style="edgeStyle=orthogonalEdgeStyle;html=1;curved=1;labelBackgroundColor=none;" parent="1" source="9" target="8" edge="1">
                    <mxGeometry relative="1" as="geometry"/>
                </mxCell>
                <mxCell id="39" value="Yes" style="edgeStyle=orthogonalEdgeStyle;shape=connector;curved=1;rounded=1;html=1;strokeColor=default;align=center;verticalAlign=middle;fontFamily=Helvetica;fontSize=11;fontColor=default;labelBackgroundColor=none;endArrow=classic;" parent="1" source="40" target="9" edge="1">
                    <mxGeometry relative="1" as="geometry"/>
                </mxCell>
                <mxCell id="9" value="表示する" style="ellipse;shape=umlControl;whiteSpace=wrap;html=1;labelBackgroundColor=none;" parent="1" vertex="1">
                    <mxGeometry x="580" y="60" width="70" height="80" as="geometry"/>
                </mxCell>
                <mxCell id="18" style="edgeStyle=orthogonalEdgeStyle;shape=connector;curved=1;rounded=1;html=1;strokeColor=default;align=center;verticalAlign=middle;fontFamily=Helvetica;fontSize=11;fontColor=default;labelBackgroundColor=none;endArrow=classic;" parent="1" source="11" target="45" edge="1">
                    <mxGeometry relative="1" as="geometry"/>
                </mxCell>
                <mxCell id="36" style="edgeStyle=orthogonalEdgeStyle;shape=connector;curved=1;rounded=1;html=1;strokeColor=default;align=center;verticalAlign=middle;fontFamily=Helvetica;fontSize=11;fontColor=default;labelBackgroundColor=none;endArrow=classic;" parent="1" source="11" target="24" edge="1">
                    <mxGeometry relative="1" as="geometry"/>
                </mxCell>
                <mxCell id="11" value="全てのおもちゃを取得する" style="ellipse;shape=umlControl;whiteSpace=wrap;html=1;fontFamily=Helvetica;fontSize=11;fontColor=default;labelBackgroundColor=none;" parent="1" vertex="1">
                    <mxGeometry x="800" y="220" width="70" height="80" as="geometry"/>
                </mxCell>
                <mxCell id="15" value="全てのおもちゃを選択肢として表示する" style="ellipse;shape=umlControl;whiteSpace=wrap;html=1;fontFamily=Helvetica;fontSize=11;fontColor=default;labelBackgroundColor=none;" parent="1" vertex="1">
                    <mxGeometry x="1090" y="330" width="70" height="80" as="geometry"/>
                </mxCell>
                <mxCell id="22" style="edgeStyle=orthogonalEdgeStyle;shape=connector;curved=1;rounded=1;html=1;strokeColor=default;align=center;verticalAlign=middle;fontFamily=Helvetica;fontSize=11;fontColor=default;labelBackgroundColor=none;endArrow=classic;" parent="1" source="16" target="21" edge="1">
                    <mxGeometry relative="1" as="geometry"/>
                </mxCell>
                <mxCell id="23" value="おもちゃを一つ選択する" style="edgeLabel;html=1;align=center;verticalAlign=middle;resizable=0;points=[];fontFamily=Helvetica;fontSize=11;fontColor=default;labelBackgroundColor=none;" parent="22" vertex="1" connectable="0">
                    <mxGeometry x="-0.0834" y="-1" relative="1" as="geometry">
                        <mxPoint as="offset"/>
                    </mxGeometry>
                </mxCell>
                <mxCell id="192" value="&lt;span style=&quot;&quot;&gt;終了/ブラウザバッグ&lt;/span&gt;" style="edgeStyle=orthogonalEdgeStyle;shape=connector;curved=1;rounded=1;html=1;strokeColor=default;align=center;verticalAlign=middle;fontFamily=Helvetica;fontSize=11;fontColor=default;labelBackgroundColor=none;endArrow=classic;" parent="1" edge="1">
                    <mxGeometry relative="1" as="geometry">
                        <mxPoint x="629.52" y="340" as="sourcePoint"/>
                        <mxPoint x="629.52" y="250" as="targetPoint"/>
                    </mxGeometry>
                </mxCell>
                <mxCell id="16" value="「おもちゃ選択」画面" style="shape=umlBoundary;whiteSpace=wrap;html=1;labelBackgroundColor=none;" parent="1" vertex="1">
                    <mxGeometry x="560" y="340" width="100" height="80" as="geometry"/>
                </mxCell>
                <mxCell id="17" style="edgeStyle=orthogonalEdgeStyle;shape=connector;curved=1;rounded=1;html=1;entryX=1.01;entryY=0.633;entryDx=0;entryDy=0;entryPerimeter=0;strokeColor=default;align=center;verticalAlign=middle;fontFamily=Helvetica;fontSize=11;fontColor=default;labelBackgroundColor=none;endArrow=classic;" parent="1" source="15" target="16" edge="1">
                    <mxGeometry relative="1" as="geometry">
                        <Array as="points">
                            <mxPoint x="1000" y="391"/>
                        </Array>
                    </mxGeometry>
                </mxCell>
                <mxCell id="26" style="edgeStyle=orthogonalEdgeStyle;shape=connector;curved=1;rounded=1;html=1;strokeColor=default;align=center;verticalAlign=middle;fontFamily=Helvetica;fontSize=11;fontColor=default;labelBackgroundColor=none;endArrow=classic;" parent="1" source="21" target="25" edge="1">
                    <mxGeometry relative="1" as="geometry"/>
                </mxCell>
                <mxCell id="30" style="edgeStyle=orthogonalEdgeStyle;shape=connector;curved=1;rounded=1;html=1;strokeColor=default;align=center;verticalAlign=middle;fontFamily=Helvetica;fontSize=11;fontColor=default;labelBackgroundColor=none;endArrow=classic;" parent="1" source="21" target="27" edge="1">
                    <mxGeometry relative="1" as="geometry"/>
                </mxCell>
                <mxCell id="21" value="外部状態を初期化する" style="ellipse;shape=umlControl;whiteSpace=wrap;html=1;fontFamily=Helvetica;fontSize=11;fontColor=default;labelBackgroundColor=none;" parent="1" vertex="1">
                    <mxGeometry x="600" y="510" width="70" height="80" as="geometry"/>
                </mxCell>
                <mxCell id="24" value="おもちゃ" style="ellipse;shape=umlEntity;whiteSpace=wrap;html=1;fontFamily=Helvetica;fontSize=11;fontColor=default;labelBackgroundColor=none;" parent="1" vertex="1">
                    <mxGeometry x="960" y="70" width="80" height="80" as="geometry"/>
                </mxCell>
                <mxCell id="25" value="外部状態" style="ellipse;shape=umlEntity;whiteSpace=wrap;html=1;fontFamily=Helvetica;fontSize=11;fontColor=default;labelBackgroundColor=none;" parent="1" vertex="1">
                    <mxGeometry x="730" y="430" width="80" height="80" as="geometry"/>
                </mxCell>
                <mxCell id="54" value="" style="edgeStyle=orthogonalEdgeStyle;shape=connector;curved=1;rounded=1;html=1;strokeColor=default;align=center;verticalAlign=middle;fontFamily=Helvetica;fontSize=11;fontColor=default;labelBackgroundColor=none;endArrow=classic;" parent="1" source="27" target="53" edge="1">
                    <mxGeometry relative="1" as="geometry"/>
                </mxCell>
                <mxCell id="27" value="ねこの内部状態を取得する" style="ellipse;shape=umlControl;whiteSpace=wrap;html=1;fontFamily=Helvetica;fontSize=11;fontColor=default;labelBackgroundColor=none;" parent="1" vertex="1">
                    <mxGeometry x="770" y="520" width="70" height="80" as="geometry"/>
                </mxCell>
                <mxCell id="28" style="edgeStyle=orthogonalEdgeStyle;shape=connector;curved=1;rounded=1;html=1;strokeColor=default;align=center;verticalAlign=middle;fontFamily=Helvetica;fontSize=11;fontColor=default;labelBackgroundColor=none;endArrow=classic;" parent="1" source="27" target="29" edge="1">
                    <mxGeometry relative="1" as="geometry"/>
                </mxCell>
                <mxCell id="29" value="内部状態" style="ellipse;shape=umlEntity;whiteSpace=wrap;html=1;fontFamily=Helvetica;fontSize=11;fontColor=default;labelBackgroundColor=none;" parent="1" vertex="1">
                    <mxGeometry x="890" y="460" width="80" height="80" as="geometry"/>
                </mxCell>
                <mxCell id="35" style="edgeStyle=orthogonalEdgeStyle;shape=connector;curved=1;rounded=1;html=1;strokeColor=default;align=center;verticalAlign=middle;fontFamily=Helvetica;fontSize=11;fontColor=default;labelBackgroundColor=none;endArrow=classic;" parent="1" source="31" target="34" edge="1">
                    <mxGeometry relative="1" as="geometry"/>
                </mxCell>
                <mxCell id="31" value="表示する" style="ellipse;shape=umlControl;whiteSpace=wrap;html=1;fontFamily=Helvetica;fontSize=11;fontColor=default;labelBackgroundColor=none;" parent="1" vertex="1">
                    <mxGeometry x="770" y="640" width="70" height="80" as="geometry"/>
                </mxCell>
                <mxCell id="66" style="edgeStyle=orthogonalEdgeStyle;shape=connector;curved=1;rounded=1;html=1;strokeColor=default;align=center;verticalAlign=middle;fontFamily=Helvetica;fontSize=11;fontColor=default;labelBackgroundColor=none;endArrow=classic;" parent="1" source="34" target="64" edge="1">
                    <mxGeometry relative="1" as="geometry"/>
                </mxCell>
                <mxCell id="68" value="おもちゃをクリックして動かす" style="edgeLabel;html=1;align=center;verticalAlign=middle;resizable=0;points=[];fontFamily=Helvetica;fontSize=11;fontColor=default;labelBackgroundColor=none;" parent="66" vertex="1" connectable="0">
                    <mxGeometry x="0.3275" y="-23" relative="1" as="geometry">
                        <mxPoint y="-1" as="offset"/>
                    </mxGeometry>
                </mxCell>
                <mxCell id="34" value="「おもちゃで遊ぶ」画面" style="shape=umlBoundary;whiteSpace=wrap;html=1;labelBackgroundColor=none;" parent="1" vertex="1">
                    <mxGeometry x="550" y="640" width="100" height="80" as="geometry"/>
                </mxCell>
                <mxCell id="37" value="ログイン画面" style="shape=umlBoundary;whiteSpace=wrap;html=1;fillColor=#FFFFCC;labelBackgroundColor=none;" parent="1" vertex="1">
                    <mxGeometry x="770" y="10" width="100" height="80" as="geometry"/>
                </mxCell>
                <mxCell id="41" style="edgeStyle=orthogonalEdgeStyle;shape=connector;curved=1;rounded=1;html=1;strokeColor=default;align=center;verticalAlign=middle;fontFamily=Helvetica;fontSize=11;fontColor=default;labelBackgroundColor=none;endArrow=classic;" parent="1" source="40" target="37" edge="1">
                    <mxGeometry relative="1" as="geometry"/>
                </mxCell>
                <mxCell id="42" value="No" style="edgeLabel;html=1;align=center;verticalAlign=middle;resizable=0;points=[];fontFamily=Helvetica;fontSize=11;fontColor=default;labelBackgroundColor=none;" parent="41" vertex="1" connectable="0">
                    <mxGeometry x="-0.2286" y="8" relative="1" as="geometry">
                        <mxPoint as="offset"/>
                    </mxGeometry>
                </mxCell>
                <mxCell id="40" value="&lt;span&gt;ログインしているか？&lt;/span&gt;" style="ellipse;shape=umlControl;whiteSpace=wrap;html=1;fillColor=#FFFFCC;labelBackgroundColor=none;" parent="1" vertex="1">
                    <mxGeometry x="480" y="-10" width="70" height="80" as="geometry"/>
                </mxCell>
                <mxCell id="43" value="ホーム画面以外" style="shape=umlBoundary;whiteSpace=wrap;html=1;fillColor=#FFFFCC;labelBackgroundColor=none;" parent="1" vertex="1">
                    <mxGeometry x="680" y="110" width="100" height="80" as="geometry"/>
                </mxCell>
                <mxCell id="44" value="フッターの&lt;div&gt;「遊ぶ」ボタンを押す&lt;/div&gt;" style="edgeStyle=orthogonalEdgeStyle;shape=connector;curved=1;rounded=1;html=1;strokeColor=default;align=center;verticalAlign=middle;fontFamily=Helvetica;fontSize=11;fontColor=default;labelBackgroundColor=none;endArrow=classic;" parent="1" source="43" target="11" edge="1">
                    <mxGeometry relative="1" as="geometry">
                        <mxPoint x="670" y="220" as="sourcePoint"/>
                        <mxPoint x="810" y="270" as="targetPoint"/>
                    </mxGeometry>
                </mxCell>
                <mxCell id="46" style="edgeStyle=orthogonalEdgeStyle;shape=connector;curved=1;rounded=1;html=1;strokeColor=default;align=center;verticalAlign=middle;fontFamily=Helvetica;fontSize=11;fontColor=default;labelBackgroundColor=none;endArrow=classic;" parent="1" source="45" target="15" edge="1">
                    <mxGeometry relative="1" as="geometry"/>
                </mxCell>
                <mxCell id="47" value="Yes" style="edgeLabel;html=1;align=center;verticalAlign=middle;resizable=0;points=[];fontFamily=Helvetica;fontSize=11;fontColor=default;labelBackgroundColor=none;" parent="46" vertex="1" connectable="0">
                    <mxGeometry x="0.0757" y="-5" relative="1" as="geometry">
                        <mxPoint y="-1" as="offset"/>
                    </mxGeometry>
                </mxCell>
                <mxCell id="50" value="" style="edgeStyle=orthogonalEdgeStyle;shape=connector;curved=1;rounded=1;html=1;strokeColor=default;align=center;verticalAlign=middle;fontFamily=Helvetica;fontSize=11;fontColor=default;labelBackgroundColor=none;endArrow=classic;" parent="1" source="45" target="49" edge="1">
                    <mxGeometry relative="1" as="geometry"/>
                </mxCell>
                <mxCell id="52" value="No" style="edgeLabel;html=1;align=center;verticalAlign=middle;resizable=0;points=[];fontFamily=Helvetica;fontSize=11;fontColor=default;labelBackgroundColor=none;" parent="50" vertex="1" connectable="0">
                    <mxGeometry x="0.0821" y="1" relative="1" as="geometry">
                        <mxPoint as="offset"/>
                    </mxGeometry>
                </mxCell>
                <mxCell id="45" value="おもちゃが存在するか？" style="ellipse;shape=umlControl;whiteSpace=wrap;html=1;fontFamily=Helvetica;fontSize=11;fontColor=default;labelBackgroundColor=none;" parent="1" vertex="1">
                    <mxGeometry x="990" y="230" width="70" height="80" as="geometry"/>
                </mxCell>
                <mxCell id="51" style="edgeStyle=orthogonalEdgeStyle;shape=connector;curved=1;rounded=1;html=1;strokeColor=default;align=center;verticalAlign=middle;fontFamily=Helvetica;fontSize=11;fontColor=default;labelBackgroundColor=none;endArrow=classic;" parent="1" source="49" target="16" edge="1">
                    <mxGeometry relative="1" as="geometry"/>
                </mxCell>
                <mxCell id="49" value="&lt;span&gt;&lt;font style=&quot;color: rgb(0, 0, 0);&quot;&gt;組み込みのおもちゃと正しくおもちゃが読み込めなかった旨を表示する&lt;/font&gt;&lt;/span&gt;" style="ellipse;shape=umlControl;whiteSpace=wrap;html=1;fontFamily=Helvetica;fontSize=11;fontColor=default;labelBackgroundColor=none;fillColor=#FFFFCC;" parent="1" vertex="1">
                    <mxGeometry x="870" y="290" width="80" height="90" as="geometry"/>
                </mxCell>
                <mxCell id="55" value="Yes" style="edgeStyle=orthogonalEdgeStyle;shape=connector;curved=1;rounded=1;html=1;strokeColor=default;align=center;verticalAlign=middle;fontFamily=Helvetica;fontSize=11;fontColor=default;labelBackgroundColor=none;endArrow=classic;" parent="1" source="53" target="31" edge="1">
                    <mxGeometry relative="1" as="geometry"/>
                </mxCell>
                <mxCell id="57" value="" style="edgeStyle=orthogonalEdgeStyle;shape=connector;curved=1;rounded=1;html=1;strokeColor=default;align=center;verticalAlign=middle;fontFamily=Helvetica;fontSize=11;fontColor=default;labelBackgroundColor=none;endArrow=classic;" parent="1" source="53" target="56" edge="1">
                    <mxGeometry relative="1" as="geometry"/>
                </mxCell>
                <mxCell id="59" value="No" style="edgeLabel;html=1;align=center;verticalAlign=middle;resizable=0;points=[];fontFamily=Helvetica;fontSize=11;fontColor=default;labelBackgroundColor=none;" parent="57" vertex="1" connectable="0">
                    <mxGeometry x="-0.4826" y="21" relative="1" as="geometry">
                        <mxPoint as="offset"/>
                    </mxGeometry>
                </mxCell>
                <mxCell id="53" value="ねこ、内部状態が存在するか？" style="ellipse;shape=umlControl;whiteSpace=wrap;html=1;fontFamily=Helvetica;fontSize=11;fontColor=default;labelBackgroundColor=none;" parent="1" vertex="1">
                    <mxGeometry x="920" y="640" width="70" height="80" as="geometry"/>
                </mxCell>
                <mxCell id="56" value="&lt;span&gt;ねこの情報が取得できない旨とともに表示する&lt;/span&gt;" style="ellipse;shape=umlControl;whiteSpace=wrap;html=1;fontFamily=Helvetica;fontSize=11;fontColor=default;labelBackgroundColor=none;fillColor=#FFFFCC;" parent="1" vertex="1">
                    <mxGeometry x="1090" y="410" width="70" height="80" as="geometry"/>
                </mxCell>
                <mxCell id="58" style="edgeStyle=orthogonalEdgeStyle;shape=connector;curved=1;rounded=1;html=1;entryX=0.995;entryY=0.653;entryDx=0;entryDy=0;entryPerimeter=0;strokeColor=default;align=center;verticalAlign=middle;fontFamily=Helvetica;fontSize=11;fontColor=default;labelBackgroundColor=none;endArrow=classic;" parent="1" source="56" target="16" edge="1">
                    <mxGeometry relative="1" as="geometry"/>
                </mxCell>
                <mxCell id="62" style="edgeStyle=orthogonalEdgeStyle;shape=connector;curved=1;rounded=1;html=1;strokeColor=default;align=center;verticalAlign=middle;fontFamily=Helvetica;fontSize=11;fontColor=default;labelBackgroundColor=none;endArrow=classic;" parent="1" source="61" target="34" edge="1">
                    <mxGeometry relative="1" as="geometry"/>
                </mxCell>
                <mxCell id="61" value="ユーザー" style="shape=umlActor;verticalLabelPosition=bottom;verticalAlign=top;html=1;labelBackgroundColor=none;" parent="1" vertex="1">
                    <mxGeometry x="430" y="630" width="30" height="60" as="geometry"/>
                </mxCell>
                <mxCell id="67" style="edgeStyle=orthogonalEdgeStyle;shape=connector;curved=1;rounded=1;html=1;strokeColor=default;align=center;verticalAlign=middle;fontFamily=Helvetica;fontSize=11;fontColor=default;labelBackgroundColor=none;endArrow=classic;" parent="1" source="84" target="64" edge="1">
                    <mxGeometry relative="1" as="geometry"/>
                </mxCell>
                <mxCell id="82" style="edgeStyle=orthogonalEdgeStyle;shape=connector;curved=1;rounded=1;html=1;strokeColor=default;align=center;verticalAlign=middle;fontFamily=Helvetica;fontSize=11;fontColor=default;labelBackgroundColor=none;endArrow=classic;" parent="1" source="63" target="81" edge="1">
                    <mxGeometry relative="1" as="geometry"/>
                </mxCell>
                <mxCell id="83" style="edgeStyle=orthogonalEdgeStyle;shape=connector;curved=1;rounded=1;html=1;strokeColor=default;align=center;verticalAlign=middle;fontFamily=Helvetica;fontSize=11;fontColor=default;labelBackgroundColor=none;endArrow=classic;" parent="1" source="63" target="80" edge="1">
                    <mxGeometry relative="1" as="geometry"/>
                </mxCell>
                <mxCell id="63" value="外部状態と内部状態を取得する" style="ellipse;shape=umlControl;whiteSpace=wrap;html=1;fontFamily=Helvetica;fontSize=11;fontColor=default;labelBackgroundColor=none;" parent="1" vertex="1">
                    <mxGeometry x="930.5" y="1000" width="70" height="80" as="geometry"/>
                </mxCell>
                <mxCell id="65" style="edgeStyle=orthogonalEdgeStyle;shape=connector;curved=1;rounded=1;html=1;strokeColor=default;align=center;verticalAlign=middle;fontFamily=Helvetica;fontSize=11;fontColor=default;labelBackgroundColor=none;endArrow=classic;entryX=0.844;entryY=0.939;entryDx=0;entryDy=0;entryPerimeter=0;" parent="1" source="64" target="34" edge="1">
                    <mxGeometry relative="1" as="geometry"/>
                </mxCell>
                <mxCell id="64" value="おもちゃの位置、ねこの位置、ねこのイラストを更新して表示する" style="ellipse;shape=umlControl;whiteSpace=wrap;html=1;fontFamily=Helvetica;fontSize=11;fontColor=default;labelBackgroundColor=none;" parent="1" vertex="1">
                    <mxGeometry x="755.5" y="880" width="70" height="80" as="geometry"/>
                </mxCell>
                <mxCell id="80" value="内部状態" style="ellipse;shape=umlEntity;whiteSpace=wrap;html=1;fontFamily=Helvetica;fontSize=11;fontColor=default;labelBackgroundColor=none;" parent="1" vertex="1">
                    <mxGeometry x="1130.5" y="1000" width="80" height="80" as="geometry"/>
                </mxCell>
                <mxCell id="81" value="外部状態" style="ellipse;shape=umlEntity;whiteSpace=wrap;html=1;fontFamily=Helvetica;fontSize=11;fontColor=default;labelBackgroundColor=none;" parent="1" vertex="1">
                    <mxGeometry x="1050.5" y="820" width="80" height="80" as="geometry"/>
                </mxCell>
                <mxCell id="85" value="" style="edgeStyle=orthogonalEdgeStyle;shape=connector;curved=1;rounded=1;html=1;strokeColor=default;align=center;verticalAlign=middle;fontFamily=Helvetica;fontSize=11;fontColor=default;labelBackgroundColor=none;endArrow=classic;" parent="1" source="63" target="84" edge="1">
                    <mxGeometry relative="1" as="geometry">
                        <mxPoint x="970.5" y="980" as="sourcePoint"/>
                        <mxPoint x="825.5" y="920" as="targetPoint"/>
                    </mxGeometry>
                </mxCell>
                <mxCell id="84" value="ねこのアクションを決定する" style="ellipse;shape=umlControl;whiteSpace=wrap;html=1;fontFamily=Helvetica;fontSize=11;fontColor=default;labelBackgroundColor=none;" parent="1" vertex="1">
                    <mxGeometry x="755.5" y="1000" width="70" height="80" as="geometry"/>
                </mxCell>
                <mxCell id="98" value="" style="ellipse;shape=ellipse;fillColor=#000000;strokeColor=#000000;labelBackgroundColor=none;" parent="1" vertex="1">
                    <mxGeometry x="1440" y="23.08" width="30" height="30" as="geometry"/>
                </mxCell>
                <mxCell id="99" value="ログイン中" style="rounded=1;whiteSpace=wrap;html=1;labelBackgroundColor=none;" parent="1" vertex="1">
                    <mxGeometry x="1395" y="170" width="120" height="60" as="geometry"/>
                </mxCell>
                <mxCell id="100" style="labelBackgroundColor=none;" parent="1" source="98" target="99" edge="1">
                    <mxGeometry relative="1" as="geometry"/>
                </mxCell>
                <mxCell id="101" value="未ログイン" style="rounded=1;whiteSpace=wrap;html=1;labelBackgroundColor=none;" parent="1" vertex="1">
                    <mxGeometry x="1590" y="110" width="120" height="60" as="geometry"/>
                </mxCell>
                <mxCell id="102" value="未ログイン" style="labelBackgroundColor=none;" parent="1" source="98" target="101" edge="1">
                    <mxGeometry relative="1" as="geometry">
                        <mxPoint x="1480" y="257.58620689655163" as="sourcePoint"/>
                    </mxGeometry>
                </mxCell>
                <mxCell id="103" value="おもちゃ選択画面" style="rounded=1;whiteSpace=wrap;html=1;labelBackgroundColor=none;" parent="1" vertex="1">
                    <mxGeometry x="1385" y="400" width="140" height="60" as="geometry"/>
                </mxCell>
                <mxCell id="104" value="「遊ぶ」ボタン" style="labelBackgroundColor=none;" parent="1" source="99" target="120" edge="1">
                    <mxGeometry relative="1" as="geometry">
                        <mxPoint x="1570" y="210" as="sourcePoint"/>
                        <mxPoint x="1570" y="370" as="targetPoint"/>
                    </mxGeometry>
                </mxCell>
                <mxCell id="105" value="ログイン成功" style="labelBackgroundColor=none;" parent="1" source="101" target="99" edge="1">
                    <mxGeometry relative="1" as="geometry"/>
                </mxCell>
                <mxCell id="106" value="組み込みおもちゃを選択肢として設定" style="rounded=1;whiteSpace=wrap;html=1;labelBackgroundColor=none;" parent="1" vertex="1">
                    <mxGeometry x="1660" y="340" width="160" height="60" as="geometry"/>
                </mxCell>
                <mxCell id="107" value="おもちゃ取得失敗" style="labelBackgroundColor=none;" parent="1" source="120" target="106" edge="1">
                    <mxGeometry relative="1" as="geometry"/>
                </mxCell>
                <mxCell id="108" style="labelBackgroundColor=none;" parent="1" source="106" target="103" edge="1">
                    <mxGeometry relative="1" as="geometry"/>
                </mxCell>
                <mxCell id="109" value="エラー表示" style="rounded=1;whiteSpace=wrap;html=1;labelBackgroundColor=none;" parent="1" vertex="1">
                    <mxGeometry x="1700" y="460" width="120" height="60" as="geometry"/>
                </mxCell>
                <mxCell id="110" value="内部状態取得失敗" style="labelBackgroundColor=none;" parent="1" source="125" target="109" edge="1">
                    <mxGeometry relative="1" as="geometry"/>
                </mxCell>
                <mxCell id="111" style="labelBackgroundColor=none;" parent="1" source="109" target="103" edge="1">
                    <mxGeometry relative="1" as="geometry"/>
                </mxCell>
                <mxCell id="112" value="おもちゃで遊ぶ画面" style="rounded=1;whiteSpace=wrap;html=1;labelBackgroundColor=none;" parent="1" vertex="1">
                    <mxGeometry x="1375" y="660" width="160" height="60" as="geometry"/>
                </mxCell>
                <mxCell id="113" value="おもちゃ選択" style="labelBackgroundColor=none;" parent="1" source="103" target="125" edge="1">
                    <mxGeometry relative="1" as="geometry">
                        <mxPoint x="1460" y="500" as="targetPoint"/>
                    </mxGeometry>
                </mxCell>
                <mxCell id="130" style="edgeStyle=orthogonalEdgeStyle;shape=connector;curved=1;rounded=1;html=1;strokeColor=default;align=center;verticalAlign=middle;fontFamily=Helvetica;fontSize=11;fontColor=default;labelBackgroundColor=none;endArrow=classic;" parent="1" source="114" target="99" edge="1">
                    <mxGeometry relative="1" as="geometry">
                        <Array as="points">
                            <mxPoint x="1300" y="840"/>
                            <mxPoint x="1300" y="200"/>
                        </Array>
                    </mxGeometry>
                </mxCell>
                <mxCell id="114" value="終了処理中" style="rounded=1;whiteSpace=wrap;html=1;labelBackgroundColor=none;" parent="1" vertex="1">
                    <mxGeometry x="1375" y="810" width="160" height="60" as="geometry"/>
                </mxCell>
                <mxCell id="115" value="終了" style="labelBackgroundColor=none;" parent="1" edge="1">
                    <mxGeometry relative="1" as="geometry">
                        <mxPoint x="1454.68" y="720" as="sourcePoint"/>
                        <mxPoint x="1454.68" y="810" as="targetPoint"/>
                    </mxGeometry>
                </mxCell>
                <mxCell id="134" value="おもちゃ取得成功" style="edgeStyle=orthogonalEdgeStyle;shape=connector;curved=1;rounded=1;html=1;strokeColor=default;align=center;verticalAlign=middle;fontFamily=Helvetica;fontSize=11;fontColor=default;labelBackgroundColor=none;endArrow=classic;" parent="1" source="120" target="103" edge="1">
                    <mxGeometry relative="1" as="geometry"/>
                </mxCell>
                <mxCell id="120" value="おもちゃ読み込み中" style="rounded=1;whiteSpace=wrap;html=1;labelBackgroundColor=none;" parent="1" vertex="1">
                    <mxGeometry x="1385" y="300" width="140" height="60" as="geometry"/>
                </mxCell>
                <mxCell id="127" value="&lt;span style=&quot;color: rgb(0, 0, 0);&quot;&gt;内部状態取得成功&lt;/span&gt;" style="edgeStyle=orthogonalEdgeStyle;shape=connector;curved=1;rounded=1;html=1;strokeColor=default;align=center;verticalAlign=middle;fontFamily=Helvetica;fontSize=11;fontColor=default;labelBackgroundColor=none;endArrow=classic;" parent="1" source="125" target="112" edge="1">
                    <mxGeometry relative="1" as="geometry"/>
                </mxCell>
                <mxCell id="125" value="ねこの内部状態読み込み中" style="rounded=1;whiteSpace=wrap;html=1;labelBackgroundColor=none;" parent="1" vertex="1">
                    <mxGeometry x="1375" y="530" width="160" height="60" as="geometry"/>
                </mxCell>
                <mxCell id="135" value="一緒に過ごす" style="shape=folder;fontStyle=1;tabWidth=110;tabHeight=30;tabPosition=left;html=1;boundedLbl=1;labelInHeader=1;container=0;collapsible=0;whiteSpace=wrap;labelBackgroundColor=none;" parent="1" vertex="1">
                    <mxGeometry x="25" y="1230" width="2095" height="1450" as="geometry"/>
                </mxCell>
                <mxCell id="136" value="&lt;div&gt;&lt;span style=&quot;&quot;&gt;#### UC: 開始する&lt;/span&gt;&lt;/div&gt;&lt;div&gt;&lt;font color=&quot;#000000&quot;&gt;- システムはホーム画面を表示する。&lt;/font&gt;&lt;/div&gt;&lt;div&gt;&lt;font color=&quot;#000000&quot;&gt;- ユーザーはフッターの「一緒に過ごす」ボタンを押す&lt;/font&gt;&lt;/div&gt;&lt;div&gt;&lt;font color=&quot;#000000&quot;&gt;- システムは「一緒に過ごす開始」画面を表示する&lt;/font&gt;&lt;/div&gt;&lt;div&gt;&lt;font color=&quot;#000000&quot;&gt;- ユーザーは「開始」ボタンを押す&lt;/font&gt;&lt;/div&gt;&lt;div&gt;&lt;font color=&quot;#000000&quot;&gt;- システムは、外部状態を初期化して、ねこの内部状態を取得し、「愛でる」画面を表示して、ゲームを起動する&lt;/font&gt;&lt;/div&gt;&lt;div&gt;&lt;font color=&quot;#000000&quot;&gt;&amp;nbsp; - UC: 「ゲームをする」をinvokeする&lt;/font&gt;&lt;/div&gt;&lt;div&gt;&lt;font color=&quot;#000000&quot;&gt;&lt;br&gt;&lt;/font&gt;&lt;/div&gt;&lt;div&gt;&lt;font color=&quot;#000000&quot;&gt;**代替コース**&lt;/font&gt;&lt;/div&gt;&lt;div&gt;&lt;font color=&quot;#000000&quot;&gt;- ユーザーがログインしていない：システムは、ログイン画面を表示する&lt;/font&gt;&lt;/div&gt;&lt;div&gt;&lt;font color=&quot;#000000&quot;&gt;- 初めに、ホーム画面以外の画面を表示している：フッターのあるすべての画面において、ユーザーはフッターの「愛でる」ボタンを押す&lt;/font&gt;&lt;/div&gt;&lt;div&gt;&lt;font color=&quot;#000000&quot;&gt;- ねこの内部状態が取得できない：システムは、ねこの情報が取得できない旨を表示し、「ホーム画面」を表示する&lt;/font&gt;&lt;/div&gt;" style="shape=note;whiteSpace=wrap;html=1;backgroundOutline=1;darkOpacity=0.05;align=left;labelBackgroundColor=none;" parent="1" vertex="1">
                    <mxGeometry x="43.34" y="1313.08" width="327.53" height="276.92" as="geometry"/>
                </mxCell>
                <mxCell id="137" value="&lt;div style=&quot;color: rgb(63, 63, 63); scrollbar-color: rgb(226, 226, 226) rgb(251, 251, 251);&quot;&gt;&lt;font style=&quot;scrollbar-color: rgb(226, 226, 226) rgb(251, 251, 251);&quot;&gt;#### UC: ゲームをする&lt;/font&gt;&lt;/div&gt;&lt;div style=&quot;color: rgb(63, 63, 63); scrollbar-color: rgb(226, 226, 226) rgb(251, 251, 251);&quot;&gt;&lt;font style=&quot;scrollbar-color: rgb(226, 226, 226) rgb(251, 251, 251);&quot;&gt;- システムは「愛でる」画面を表示する&lt;/font&gt;&lt;/div&gt;&lt;div style=&quot;color: rgb(63, 63, 63); scrollbar-color: rgb(226, 226, 226) rgb(251, 251, 251);&quot;&gt;&lt;font style=&quot;scrollbar-color: rgb(226, 226, 226) rgb(251, 251, 251);&quot;&gt;- ユーザーはアナログスティックを上下左右に動かす&lt;/font&gt;&lt;/div&gt;&lt;div style=&quot;color: rgb(63, 63, 63); scrollbar-color: rgb(226, 226, 226) rgb(251, 251, 251);&quot;&gt;&lt;font style=&quot;scrollbar-color: rgb(226, 226, 226) rgb(251, 251, 251);&quot;&gt;- システムは、ユーザー位置を更新する。外部状態・内部状態・ねこの好み・ねこの経験に応じて、ねこのアクションを決定する（詳細ロジックはUCでは記述しない）&lt;/font&gt;&lt;/div&gt;&lt;div style=&quot;color: rgb(63, 63, 63); scrollbar-color: rgb(226, 226, 226) rgb(251, 251, 251);&quot;&gt;&lt;font style=&quot;scrollbar-color: rgb(226, 226, 226) rgb(251, 251, 251);&quot;&gt;&lt;br style=&quot;color: rgb(63, 63, 63); scrollbar-color: rgb(226, 226, 226) rgb(251, 251, 251);&quot;&gt;&lt;/font&gt;&lt;/div&gt;&lt;div style=&quot;color: rgb(63, 63, 63); scrollbar-color: rgb(226, 226, 226) rgb(251, 251, 251);&quot;&gt;&lt;font style=&quot;scrollbar-color: rgb(226, 226, 226) rgb(251, 251, 251);&quot;&gt;**代替コース**&lt;/font&gt;&lt;/div&gt;&lt;div style=&quot;color: rgb(63, 63, 63); scrollbar-color: rgb(226, 226, 226) rgb(251, 251, 251);&quot;&gt;&lt;font style=&quot;scrollbar-color: rgb(226, 226, 226) rgb(251, 251, 251);&quot;&gt;- ユーザーはアナログスティックを動かさない：システムは、ユーザーの位置の更新はせず、ねこのアクションを決定する。&lt;/font&gt;&lt;/div&gt;" style="shape=note;whiteSpace=wrap;html=1;backgroundOutline=1;darkOpacity=0.05;align=left;labelBackgroundColor=none;" parent="1" vertex="1">
                    <mxGeometry x="43.34" y="1870" width="311.66" height="190" as="geometry"/>
                </mxCell>
                <mxCell id="145" style="edgeStyle=orthogonalEdgeStyle;shape=connector;curved=1;rounded=1;html=1;strokeColor=default;align=center;verticalAlign=middle;fontFamily=Helvetica;fontSize=11;fontColor=default;labelBackgroundColor=none;endArrow=classic;" parent="1" source="139" target="140" edge="1">
                    <mxGeometry relative="1" as="geometry"/>
                </mxCell>
                <mxCell id="139" value="ユーザー" style="shape=umlActor;verticalLabelPosition=bottom;verticalAlign=top;html=1;fontFamily=Helvetica;fontSize=11;fontColor=default;labelBackgroundColor=none;" parent="1" vertex="1">
                    <mxGeometry x="455" y="1490" width="30" height="60" as="geometry"/>
                </mxCell>
                <mxCell id="150" value="" style="edgeStyle=orthogonalEdgeStyle;shape=connector;curved=1;rounded=1;html=1;strokeColor=default;align=center;verticalAlign=middle;fontFamily=Helvetica;fontSize=11;fontColor=default;labelBackgroundColor=none;endArrow=classic;" parent="1" source="187" target="185" edge="1">
                    <mxGeometry relative="1" as="geometry">
                        <mxPoint x="885" y="1590" as="targetPoint"/>
                    </mxGeometry>
                </mxCell>
                <mxCell id="140" value="ホーム画面" style="shape=umlBoundary;whiteSpace=wrap;html=1;fontFamily=Helvetica;fontSize=11;fontColor=default;labelBackgroundColor=none;" parent="1" vertex="1">
                    <mxGeometry x="605" y="1510" width="100" height="80" as="geometry"/>
                </mxCell>
                <mxCell id="141" value="ログイン画面" style="shape=umlBoundary;whiteSpace=wrap;html=1;fontFamily=Helvetica;fontSize=11;fontColor=default;labelBackgroundColor=none;fillColor=#FFFFCC;" parent="1" vertex="1">
                    <mxGeometry x="720" y="1300" width="100" height="80" as="geometry"/>
                </mxCell>
                <mxCell id="143" style="edgeStyle=orthogonalEdgeStyle;shape=connector;curved=1;rounded=1;html=1;strokeColor=default;align=center;verticalAlign=middle;fontFamily=Helvetica;fontSize=11;fontColor=default;labelBackgroundColor=none;endArrow=classic;" parent="1" source="142" target="140" edge="1">
                    <mxGeometry relative="1" as="geometry"/>
                </mxCell>
                <mxCell id="142" value="表示する" style="ellipse;shape=umlControl;whiteSpace=wrap;html=1;fontFamily=Helvetica;fontSize=11;fontColor=default;labelBackgroundColor=none;" parent="1" vertex="1">
                    <mxGeometry x="555" y="1400" width="70" height="80" as="geometry"/>
                </mxCell>
                <mxCell id="147" value="No" style="edgeStyle=orthogonalEdgeStyle;shape=connector;curved=1;rounded=1;html=1;strokeColor=default;align=center;verticalAlign=middle;fontFamily=Helvetica;fontSize=11;fontColor=default;labelBackgroundColor=none;endArrow=classic;" parent="1" source="146" target="141" edge="1">
                    <mxGeometry relative="1" as="geometry"/>
                </mxCell>
                <mxCell id="148" value="Yes" style="edgeStyle=orthogonalEdgeStyle;shape=connector;curved=1;rounded=1;html=1;strokeColor=default;align=center;verticalAlign=middle;fontFamily=Helvetica;fontSize=11;fontColor=default;labelBackgroundColor=none;endArrow=classic;" parent="1" source="146" target="142" edge="1">
                    <mxGeometry relative="1" as="geometry"/>
                </mxCell>
                <mxCell id="146" value="ログイン済みか？" style="ellipse;shape=umlControl;whiteSpace=wrap;html=1;fontFamily=Helvetica;fontSize=11;fontColor=default;labelBackgroundColor=none;fillColor=#FFFFCC;" parent="1" vertex="1">
                    <mxGeometry x="505" y="1280" width="70" height="80" as="geometry"/>
                </mxCell>
                <mxCell id="168" style="edgeStyle=orthogonalEdgeStyle;shape=connector;curved=1;rounded=1;html=1;strokeColor=default;align=center;verticalAlign=middle;fontFamily=Helvetica;fontSize=11;fontColor=default;labelBackgroundColor=none;endArrow=classic;" parent="1" source="170" target="171" edge="1">
                    <mxGeometry relative="1" as="geometry"/>
                </mxCell>
                <mxCell id="169" style="edgeStyle=orthogonalEdgeStyle;shape=connector;curved=1;rounded=1;html=1;strokeColor=default;align=center;verticalAlign=middle;fontFamily=Helvetica;fontSize=11;fontColor=default;labelBackgroundColor=none;endArrow=classic;" parent="1" source="170" target="172" edge="1">
                    <mxGeometry relative="1" as="geometry"/>
                </mxCell>
                <mxCell id="170" value="外部状態を初期化する" style="ellipse;shape=umlControl;whiteSpace=wrap;html=1;fontFamily=Helvetica;fontSize=11;fontColor=default;labelBackgroundColor=none;" parent="1" vertex="1">
                    <mxGeometry x="887.5" y="1690" width="70" height="80" as="geometry"/>
                </mxCell>
                <mxCell id="171" value="外部状態" style="ellipse;shape=umlEntity;whiteSpace=wrap;html=1;fontFamily=Helvetica;fontSize=11;fontColor=default;labelBackgroundColor=none;" parent="1" vertex="1">
                    <mxGeometry x="1017.5" y="1610" width="80" height="80" as="geometry"/>
                </mxCell>
                <mxCell id="172" value="ねこの内部状態を取得する" style="ellipse;shape=umlControl;whiteSpace=wrap;html=1;fontFamily=Helvetica;fontSize=11;fontColor=default;labelBackgroundColor=none;" parent="1" vertex="1">
                    <mxGeometry x="1057.5" y="1700" width="70" height="80" as="geometry"/>
                </mxCell>
                <mxCell id="173" style="edgeStyle=orthogonalEdgeStyle;shape=connector;curved=1;rounded=1;html=1;strokeColor=default;align=center;verticalAlign=middle;fontFamily=Helvetica;fontSize=11;fontColor=default;labelBackgroundColor=none;endArrow=classic;" parent="1" source="172" target="174" edge="1">
                    <mxGeometry relative="1" as="geometry"/>
                </mxCell>
                <mxCell id="174" value="内部状態" style="ellipse;shape=umlEntity;whiteSpace=wrap;html=1;fontFamily=Helvetica;fontSize=11;fontColor=default;labelBackgroundColor=none;" parent="1" vertex="1">
                    <mxGeometry x="1177.5" y="1640" width="80" height="80" as="geometry"/>
                </mxCell>
                <mxCell id="178" value="" style="edgeStyle=orthogonalEdgeStyle;shape=connector;curved=1;rounded=1;html=1;strokeColor=default;align=center;verticalAlign=middle;fontFamily=Helvetica;fontSize=11;fontColor=default;labelBackgroundColor=none;endArrow=classic;" parent="1" source="172" target="182" edge="1">
                    <mxGeometry relative="1" as="geometry">
                        <mxPoint x="1095" y="1630" as="sourcePoint"/>
                    </mxGeometry>
                </mxCell>
                <mxCell id="179" value="" style="edgeStyle=orthogonalEdgeStyle;shape=connector;curved=1;rounded=1;html=1;strokeColor=default;align=center;verticalAlign=middle;fontFamily=Helvetica;fontSize=11;fontColor=default;labelBackgroundColor=none;endArrow=classic;" parent="1" source="482" target="191" edge="1">
                    <mxGeometry relative="1" as="geometry">
                        <mxPoint x="1095" y="1750" as="targetPoint"/>
                    </mxGeometry>
                </mxCell>
                <mxCell id="180" value="" style="edgeStyle=orthogonalEdgeStyle;shape=connector;curved=1;rounded=1;html=1;strokeColor=default;align=center;verticalAlign=middle;fontFamily=Helvetica;fontSize=11;fontColor=default;labelBackgroundColor=none;endArrow=classic;" parent="1" source="182" target="183" edge="1">
                    <mxGeometry relative="1" as="geometry"/>
                </mxCell>
                <mxCell id="181" value="No" style="edgeLabel;html=1;align=center;verticalAlign=middle;resizable=0;points=[];fontFamily=Helvetica;fontSize=11;fontColor=default;labelBackgroundColor=none;" parent="180" vertex="1" connectable="0">
                    <mxGeometry x="-0.4826" y="21" relative="1" as="geometry">
                        <mxPoint x="-67" y="-51" as="offset"/>
                    </mxGeometry>
                </mxCell>
                <mxCell id="182" value="ねこ、内部状態が存在するか？" style="ellipse;shape=umlControl;whiteSpace=wrap;html=1;fontFamily=Helvetica;fontSize=11;fontColor=default;labelBackgroundColor=none;" parent="1" vertex="1">
                    <mxGeometry x="1057.5" y="1820" width="70" height="80" as="geometry"/>
                </mxCell>
                <mxCell id="183" value="&lt;span&gt;ねこの情報が取得できない旨とともに表示する&lt;/span&gt;" style="ellipse;shape=umlControl;whiteSpace=wrap;html=1;fontFamily=Helvetica;fontSize=11;fontColor=default;labelBackgroundColor=none;fillColor=#FFFFCC;" parent="1" vertex="1">
                    <mxGeometry x="750" y="1780" width="70" height="80" as="geometry"/>
                </mxCell>
                <mxCell id="184" style="edgeStyle=orthogonalEdgeStyle;shape=connector;curved=1;rounded=1;html=1;strokeColor=default;align=center;verticalAlign=middle;fontFamily=Helvetica;fontSize=11;fontColor=default;labelBackgroundColor=none;endArrow=classic;" parent="1" source="183" target="185" edge="1">
                    <mxGeometry relative="1" as="geometry">
                        <mxPoint x="1465" y="1190" as="targetPoint"/>
                    </mxGeometry>
                </mxCell>
                <mxCell id="186" style="edgeStyle=orthogonalEdgeStyle;shape=connector;curved=1;rounded=1;html=1;strokeColor=default;align=center;verticalAlign=middle;fontFamily=Helvetica;fontSize=11;fontColor=default;labelBackgroundColor=none;endArrow=classic;" parent="1" source="185" target="170" edge="1">
                    <mxGeometry relative="1" as="geometry"/>
                </mxCell>
                <mxCell id="190" value="「開始」ボタンを押す" style="edgeLabel;html=1;align=center;verticalAlign=middle;resizable=0;points=[];fontFamily=Helvetica;fontSize=11;fontColor=default;labelBackgroundColor=none;" parent="186" vertex="1" connectable="0">
                    <mxGeometry x="-0.2274" y="16" relative="1" as="geometry">
                        <mxPoint as="offset"/>
                    </mxGeometry>
                </mxCell>
                <mxCell id="185" value="「一緒に過ごす開始」画面" style="shape=umlBoundary;whiteSpace=wrap;html=1;fontFamily=Helvetica;fontSize=11;fontColor=default;labelBackgroundColor=none;" parent="1" vertex="1">
                    <mxGeometry x="595" y="1690" width="100" height="80" as="geometry"/>
                </mxCell>
                <mxCell id="188" value="" style="edgeStyle=orthogonalEdgeStyle;shape=connector;curved=1;rounded=1;html=1;strokeColor=default;align=center;verticalAlign=middle;fontFamily=Helvetica;fontSize=11;fontColor=default;labelBackgroundColor=none;endArrow=classic;" parent="1" source="140" target="187" edge="1">
                    <mxGeometry relative="1" as="geometry">
                        <mxPoint x="705" y="1550" as="sourcePoint"/>
                        <mxPoint x="785" y="1640" as="targetPoint"/>
                    </mxGeometry>
                </mxCell>
                <mxCell id="189" value="&lt;span style=&quot;color: rgb(0, 0, 0);&quot;&gt;「一緒に過ごす」ボタンを押す&lt;/span&gt;" style="edgeLabel;html=1;align=center;verticalAlign=middle;resizable=0;points=[];fontFamily=Helvetica;fontSize=11;fontColor=default;labelBackgroundColor=none;" parent="188" vertex="1" connectable="0">
                    <mxGeometry x="0.2124" y="1" relative="1" as="geometry">
                        <mxPoint x="-16" y="1" as="offset"/>
                    </mxGeometry>
                </mxCell>
                <mxCell id="187" value="表示する" style="ellipse;shape=umlControl;whiteSpace=wrap;html=1;fontFamily=Helvetica;fontSize=11;fontColor=default;labelBackgroundColor=none;" parent="1" vertex="1">
                    <mxGeometry x="795" y="1600" width="70" height="80" as="geometry"/>
                </mxCell>
                <mxCell id="191" value="「一緒に過ごす」画面" style="shape=umlBoundary;whiteSpace=wrap;html=1;fontFamily=Helvetica;fontSize=11;fontColor=default;labelBackgroundColor=none;" parent="1" vertex="1">
                    <mxGeometry x="590" y="1890" width="100" height="80" as="geometry"/>
                </mxCell>
                <mxCell id="193" value="&lt;span style=&quot;&quot;&gt;終了/ブラウザバッグ&lt;/span&gt;" style="edgeStyle=orthogonalEdgeStyle;shape=connector;curved=1;rounded=1;html=1;strokeColor=default;align=center;verticalAlign=middle;fontFamily=Helvetica;fontSize=11;fontColor=default;labelBackgroundColor=none;endArrow=classic;exitX=0.905;exitY=0.197;exitDx=0;exitDy=0;exitPerimeter=0;" parent="1" source="16" target="43" edge="1">
                    <mxGeometry relative="1" as="geometry">
                        <mxPoint x="620" y="350" as="sourcePoint"/>
                        <mxPoint x="620" y="260" as="targetPoint"/>
                    </mxGeometry>
                </mxCell>
                <mxCell id="201" value="ホーム画面以外" style="shape=umlBoundary;whiteSpace=wrap;html=1;fontFamily=Helvetica;fontSize=11;fontColor=default;labelBackgroundColor=none;fillColor=#FFFFCC;" parent="1" vertex="1">
                    <mxGeometry x="915" y="1410" width="100" height="80" as="geometry"/>
                </mxCell>
                <mxCell id="202" value="" style="edgeStyle=orthogonalEdgeStyle;shape=connector;curved=1;rounded=1;html=1;strokeColor=default;align=center;verticalAlign=middle;fontFamily=Helvetica;fontSize=11;fontColor=default;labelBackgroundColor=none;endArrow=classic;" parent="1" source="201" target="187" edge="1">
                    <mxGeometry relative="1" as="geometry">
                        <mxPoint x="715" y="1560" as="sourcePoint"/>
                        <mxPoint x="780" y="1610" as="targetPoint"/>
                    </mxGeometry>
                </mxCell>
                <mxCell id="203" value="&lt;span style=&quot;color: rgb(0, 0, 0);&quot;&gt;フッターの&lt;br&gt;「一緒に過ごす」ボタンを押す&lt;/span&gt;" style="edgeLabel;html=1;align=left;verticalAlign=middle;resizable=0;points=[];fontFamily=Helvetica;fontSize=11;fontColor=default;labelBackgroundColor=none;" parent="202" vertex="1" connectable="0">
                    <mxGeometry x="0.2124" y="1" relative="1" as="geometry">
                        <mxPoint as="offset"/>
                    </mxGeometry>
                </mxCell>
                <mxCell id="208" style="edgeStyle=orthogonalEdgeStyle;shape=connector;curved=1;rounded=1;html=1;strokeColor=default;align=center;verticalAlign=middle;fontFamily=Helvetica;fontSize=11;fontColor=default;labelBackgroundColor=none;endArrow=classic;entryX=1.006;entryY=0.575;entryDx=0;entryDy=0;entryPerimeter=0;exitX=0.945;exitY=0.815;exitDx=0;exitDy=0;exitPerimeter=0;" parent="1" source="191" target="215" edge="1">
                    <mxGeometry relative="1" as="geometry">
                        <mxPoint x="671" y="1930" as="sourcePoint"/>
                        <mxPoint x="809.9999999999998" y="2050.0000000000005" as="targetPoint"/>
                        <Array as="points">
                            <mxPoint x="725" y="1955"/>
                            <mxPoint x="725" y="2096"/>
                        </Array>
                    </mxGeometry>
                </mxCell>
                <mxCell id="209" value="アナログスティックを動かす" style="edgeLabel;html=1;align=center;verticalAlign=middle;resizable=0;points=[];fontFamily=Helvetica;fontSize=11;fontColor=default;labelBackgroundColor=none;" parent="208" vertex="1" connectable="0">
                    <mxGeometry x="0.3275" y="-23" relative="1" as="geometry">
                        <mxPoint x="43" y="-43" as="offset"/>
                    </mxGeometry>
                </mxCell>
                <mxCell id="210" style="edgeStyle=orthogonalEdgeStyle;shape=connector;curved=1;rounded=1;html=1;strokeColor=default;align=center;verticalAlign=middle;fontFamily=Helvetica;fontSize=11;fontColor=default;labelBackgroundColor=none;endArrow=classic;" parent="1" source="221" target="215" edge="1">
                    <mxGeometry relative="1" as="geometry"/>
                </mxCell>
                <mxCell id="211" style="edgeStyle=orthogonalEdgeStyle;shape=connector;curved=1;rounded=1;html=1;strokeColor=default;align=center;verticalAlign=middle;fontFamily=Helvetica;fontSize=11;fontColor=default;labelBackgroundColor=none;endArrow=classic;" parent="1" source="213" target="219" edge="1">
                    <mxGeometry relative="1" as="geometry"/>
                </mxCell>
                <mxCell id="212" style="edgeStyle=orthogonalEdgeStyle;shape=connector;curved=1;rounded=1;html=1;strokeColor=default;align=center;verticalAlign=middle;fontFamily=Helvetica;fontSize=11;fontColor=default;labelBackgroundColor=none;endArrow=classic;" parent="1" source="213" target="218" edge="1">
                    <mxGeometry relative="1" as="geometry"/>
                </mxCell>
                <mxCell id="213" value="外部状態と内部状態を取得する" style="ellipse;shape=umlControl;whiteSpace=wrap;html=1;fontFamily=Helvetica;fontSize=11;fontColor=default;labelBackgroundColor=none;" parent="1" vertex="1">
                    <mxGeometry x="780" y="2170" width="70" height="80" as="geometry"/>
                </mxCell>
                <mxCell id="214" style="edgeStyle=orthogonalEdgeStyle;shape=connector;curved=1;rounded=1;html=1;strokeColor=default;align=center;verticalAlign=middle;fontFamily=Helvetica;fontSize=11;fontColor=default;labelBackgroundColor=none;endArrow=classic;" parent="1" source="215" target="191" edge="1">
                    <mxGeometry relative="1" as="geometry">
                        <mxPoint x="655" y="1965" as="targetPoint"/>
                    </mxGeometry>
                </mxCell>
                <mxCell id="215" value="おもちゃの位置、ねこの位置、ねこのイラストを更新して表示する" style="ellipse;shape=umlControl;whiteSpace=wrap;html=1;fontFamily=Helvetica;fontSize=11;fontColor=default;labelBackgroundColor=none;" parent="1" vertex="1">
                    <mxGeometry x="605" y="2050" width="70" height="80" as="geometry"/>
                </mxCell>
                <mxCell id="218" value="内部状態" style="ellipse;shape=umlEntity;whiteSpace=wrap;html=1;fontFamily=Helvetica;fontSize=11;fontColor=default;labelBackgroundColor=none;" parent="1" vertex="1">
                    <mxGeometry x="980" y="2170" width="80" height="80" as="geometry"/>
                </mxCell>
                <mxCell id="219" value="外部状態" style="ellipse;shape=umlEntity;whiteSpace=wrap;html=1;fontFamily=Helvetica;fontSize=11;fontColor=default;labelBackgroundColor=none;" parent="1" vertex="1">
                    <mxGeometry x="900" y="1990" width="80" height="80" as="geometry"/>
                </mxCell>
                <mxCell id="220" value="" style="edgeStyle=orthogonalEdgeStyle;shape=connector;curved=1;rounded=1;html=1;strokeColor=default;align=center;verticalAlign=middle;fontFamily=Helvetica;fontSize=11;fontColor=default;labelBackgroundColor=none;endArrow=classic;" parent="1" source="213" target="221" edge="1">
                    <mxGeometry relative="1" as="geometry">
                        <mxPoint x="820" y="2150" as="sourcePoint"/>
                        <mxPoint x="675" y="2090" as="targetPoint"/>
                    </mxGeometry>
                </mxCell>
                <mxCell id="223" value="任意のボタンを押す&lt;br&gt;invoke" style="edgeStyle=orthogonalEdgeStyle;shape=connector;curved=1;rounded=1;html=1;strokeColor=default;align=left;verticalAlign=middle;fontFamily=Helvetica;fontSize=11;fontColor=default;labelBackgroundColor=none;endArrow=classic;" parent="1" source="191" target="222" edge="1">
                    <mxGeometry x="0.008" y="-30" relative="1" as="geometry">
                        <Array as="points">
                            <mxPoint x="505" y="1930"/>
                            <mxPoint x="505" y="2405.000000000001"/>
                        </Array>
                        <mxPoint y="1" as="offset"/>
                    </mxGeometry>
                </mxCell>
                <mxCell id="221" value="ねこのアクションを決定する" style="ellipse;shape=umlControl;whiteSpace=wrap;html=1;fontFamily=Helvetica;fontSize=11;fontColor=default;labelBackgroundColor=none;" parent="1" vertex="1">
                    <mxGeometry x="605" y="2170" width="70" height="80" as="geometry"/>
                </mxCell>
                <mxCell id="222" value="UC: ゲームを終了する" style="ellipse;whiteSpace=wrap;html=1;fontFamily=Helvetica;fontSize=11;fontColor=default;labelBackgroundColor=none;" parent="1" vertex="1">
                    <mxGeometry x="570" y="2370" width="140" height="70" as="geometry"/>
                </mxCell>
                <mxCell id="224" value="ゲーム共通処理" style="shape=folder;fontStyle=1;tabWidth=110;tabHeight=30;tabPosition=left;html=1;boundedLbl=1;labelInHeader=1;container=0;collapsible=0;whiteSpace=wrap;labelBackgroundColor=none;" parent="1" vertex="1">
                    <mxGeometry x="2190" y="-800" width="1020" height="750" as="geometry"/>
                </mxCell>
                <mxCell id="225" value="&lt;div&gt;&lt;span style=&quot;&quot;&gt;#### UC: 終了する&lt;/span&gt;&lt;/div&gt;&lt;div&gt;&lt;font color=&quot;#000000&quot;&gt;- ユーザーは、画面の「終了」ボタンを押す&lt;/font&gt;&lt;/div&gt;&lt;div&gt;&lt;font color=&quot;#000000&quot;&gt;- システムは、ねこ状態を保存し、ゲームを終了する。「おもちゃ選択」画面を表示する。&lt;/font&gt;&lt;/div&gt;&lt;div&gt;&lt;font color=&quot;#000000&quot;&gt;&lt;br&gt;&lt;/font&gt;&lt;/div&gt;&lt;div&gt;&lt;font color=&quot;#000000&quot;&gt;**代替コース**&lt;/font&gt;&lt;/div&gt;&lt;div&gt;&lt;font color=&quot;#000000&quot;&gt;&lt;span style=&quot;color: rgb(0, 0, 0);&quot;&gt;- ゲーム中に終了ボタン以外を押した：システムは、「ゲームを終了」ボタンと「ゲームを再開」ボタンをポップ画面上に表示する。&lt;/span&gt;&lt;/font&gt;&lt;/div&gt;&lt;div&gt;&lt;font color=&quot;#000000&quot;&gt;&lt;span style=&quot;color: rgb(0, 0, 0);&quot;&gt;&amp;nbsp; - ユーザーが「ゲームを終了」ボタンを押した場合、システムは終了処理（ねこ状態の保存）を行い、&lt;/span&gt;&lt;/font&gt;&lt;span style=&quot;color: rgb(0, 0, 0);&quot;&gt;ユーザーが押したボタンに従い、処理・ユースケースが実行される&lt;/span&gt;&lt;span style=&quot;&quot;&gt;。&lt;/span&gt;&lt;/div&gt;&lt;div&gt;&lt;span style=&quot;&quot;&gt;&amp;nbsp; - ユーザーが「ゲームを再開」ボタンを押した場合、ゲームをそのまま継続する。&lt;/span&gt;&lt;/div&gt;" style="shape=note;whiteSpace=wrap;html=1;backgroundOutline=1;darkOpacity=0.05;align=left;labelBackgroundColor=none;" parent="1" vertex="1">
                    <mxGeometry x="2211" y="-753.46" width="336.67" height="220" as="geometry"/>
                </mxCell>
                <mxCell id="227" value="" style="edgeStyle=orthogonalEdgeStyle;shape=connector;curved=1;rounded=1;html=1;strokeColor=default;align=center;verticalAlign=middle;fontFamily=Helvetica;fontSize=11;fontColor=default;labelBackgroundColor=none;endArrow=classic;" parent="1" source="231" target="233" edge="1">
                    <mxGeometry relative="1" as="geometry"/>
                </mxCell>
                <mxCell id="228" value="「終了」ボタンの場合" style="edgeLabel;html=1;align=center;verticalAlign=middle;resizable=0;points=[];fontFamily=Helvetica;fontSize=11;fontColor=default;labelBackgroundColor=none;" parent="227" vertex="1" connectable="0">
                    <mxGeometry x="-0.0348" relative="1" as="geometry">
                        <mxPoint as="offset"/>
                    </mxGeometry>
                </mxCell>
                <mxCell id="229" style="edgeStyle=orthogonalEdgeStyle;shape=connector;curved=1;rounded=1;html=1;strokeColor=default;align=center;verticalAlign=middle;fontFamily=Helvetica;fontSize=11;fontColor=default;labelBackgroundColor=none;endArrow=classic;" parent="1" source="231" target="244" edge="1">
                    <mxGeometry relative="1" as="geometry">
                        <mxPoint x="2851" y="-1110" as="targetPoint"/>
                        <Array as="points">
                            <mxPoint x="2711" y="-445"/>
                            <mxPoint x="2711" y="-445"/>
                        </Array>
                    </mxGeometry>
                </mxCell>
                <mxCell id="230" value="&lt;font style=&quot;color: rgb(0, 0, 0);&quot;&gt;「終了」ボタン以外の場合&lt;/font&gt;" style="edgeLabel;html=1;align=center;verticalAlign=middle;resizable=0;points=[];fontFamily=Helvetica;fontSize=11;fontColor=default;labelBackgroundColor=none;fillColor=#FFFFCC;" parent="229" vertex="1" connectable="0">
                    <mxGeometry x="-0.4296" y="1" relative="1" as="geometry">
                        <mxPoint x="-51" y="4" as="offset"/>
                    </mxGeometry>
                </mxCell>
                <mxCell id="231" value="ねこの状態を保存し、ゲームを終了する。" style="ellipse;shape=umlControl;whiteSpace=wrap;html=1;fontFamily=Helvetica;fontSize=11;fontColor=default;labelBackgroundColor=none;" parent="1" vertex="1">
                    <mxGeometry x="2721" y="-480" width="70" height="80" as="geometry"/>
                </mxCell>
                <mxCell id="232" style="edgeStyle=orthogonalEdgeStyle;shape=connector;curved=1;rounded=1;html=1;strokeColor=default;align=center;verticalAlign=middle;fontFamily=Helvetica;fontSize=11;fontColor=default;labelBackgroundColor=none;endArrow=classic;" parent="1" edge="1">
                    <mxGeometry relative="1" as="geometry">
                        <mxPoint x="2755.68" y="-179.59000000000003" as="targetPoint"/>
                        <Array as="points">
                            <mxPoint x="2755.68" y="-189.59000000000003"/>
                            <mxPoint x="2755.68" y="-189.59000000000003"/>
                        </Array>
                        <mxPoint x="2755.68" y="-240.00026725556825" as="sourcePoint"/>
                    </mxGeometry>
                </mxCell>
                <mxCell id="233" value="表示する" style="ellipse;shape=umlControl;whiteSpace=wrap;html=1;fontFamily=Helvetica;fontSize=11;fontColor=default;labelBackgroundColor=none;" parent="1" vertex="1">
                    <mxGeometry x="2721" y="-320" width="70" height="80" as="geometry"/>
                </mxCell>
                <mxCell id="247" value="「ゲームを再開」ボタンを押す" style="edgeStyle=orthogonalEdgeStyle;shape=connector;curved=1;rounded=1;html=1;strokeColor=default;align=center;verticalAlign=middle;fontFamily=Helvetica;fontSize=11;fontColor=default;labelBackgroundColor=none;endArrow=classic;" parent="1" source="234" target="237" edge="1">
                    <mxGeometry relative="1" as="geometry">
                        <Array as="points">
                            <mxPoint x="2991" y="-760"/>
                            <mxPoint x="2756" y="-760"/>
                        </Array>
                    </mxGeometry>
                </mxCell>
                <mxCell id="234" value="ポップアップ画面に「ゲームを終了」ボタンと「ゲームを再開」ボタンを表示する" style="ellipse;shape=umlControl;whiteSpace=wrap;html=1;fontFamily=Helvetica;fontSize=11;labelBackgroundColor=none;fillColor=#FFFFCC;strokeColor=#d6b656;" parent="1" vertex="1">
                    <mxGeometry x="2921" y="-610" width="90" height="100" as="geometry"/>
                </mxCell>
                <mxCell id="235" style="edgeStyle=orthogonalEdgeStyle;shape=connector;curved=1;rounded=1;html=1;strokeColor=default;align=center;verticalAlign=middle;fontFamily=Helvetica;fontSize=11;fontColor=default;labelBackgroundColor=none;endArrow=classic;exitX=0.457;exitY=1.007;exitDx=0;exitDy=0;exitPerimeter=0;" parent="1" source="234" target="231" edge="1">
                    <mxGeometry relative="1" as="geometry"/>
                </mxCell>
                <mxCell id="236" value="「ゲームを終了」ボタンを押す" style="edgeLabel;html=1;align=center;verticalAlign=middle;resizable=0;points=[];fontFamily=Helvetica;fontSize=11;fontColor=default;labelBackgroundColor=none;" parent="235" vertex="1" connectable="0">
                    <mxGeometry x="-0.4146" y="11" relative="1" as="geometry">
                        <mxPoint x="-52" y="-6" as="offset"/>
                    </mxGeometry>
                </mxCell>
                <mxCell id="238" style="edgeStyle=orthogonalEdgeStyle;shape=connector;curved=1;rounded=1;html=1;strokeColor=default;align=center;verticalAlign=middle;fontFamily=Helvetica;fontSize=11;fontColor=default;labelBackgroundColor=none;endArrow=classic;" parent="1" source="237" target="231" edge="1">
                    <mxGeometry relative="1" as="geometry"/>
                </mxCell>
                <mxCell id="239" value="「終了」ボタンを押す" style="edgeLabel;html=1;align=center;verticalAlign=middle;resizable=0;points=[];fontFamily=Helvetica;fontSize=11;fontColor=default;labelBackgroundColor=none;" parent="238" vertex="1" connectable="0">
                    <mxGeometry x="-0.2348" y="-6" relative="1" as="geometry">
                        <mxPoint as="offset"/>
                    </mxGeometry>
                </mxCell>
                <mxCell id="240" value="「終了」ボタン以外を押す" style="edgeStyle=orthogonalEdgeStyle;shape=connector;curved=1;rounded=1;html=1;strokeColor=default;align=center;verticalAlign=middle;fontFamily=Helvetica;fontSize=11;fontColor=default;labelBackgroundColor=none;endArrow=classic;" parent="1" source="237" target="234" edge="1">
                    <mxGeometry x="-0.2609" y="-10" relative="1" as="geometry">
                        <mxPoint as="offset"/>
                    </mxGeometry>
                </mxCell>
                <mxCell id="237" value="各ゲーム中の画面" style="shape=umlBoundary;whiteSpace=wrap;html=1;fontFamily=Helvetica;fontSize=11;fontColor=default;labelBackgroundColor=none;" parent="1" vertex="1">
                    <mxGeometry x="2706" y="-720" width="100" height="80" as="geometry"/>
                </mxCell>
                <mxCell id="242" value="" style="edgeStyle=orthogonalEdgeStyle;shape=connector;curved=1;rounded=1;html=1;strokeColor=default;align=center;verticalAlign=middle;fontFamily=Helvetica;fontSize=11;fontColor=default;labelBackgroundColor=none;endArrow=classic;" parent="1" source="231" target="241" edge="1">
                    <mxGeometry relative="1" as="geometry">
                        <mxPoint x="3422" y="-580" as="targetPoint"/>
                        <mxPoint x="2791" y="-440" as="sourcePoint"/>
                    </mxGeometry>
                </mxCell>
                <mxCell id="241" value="内部状態" style="ellipse;shape=umlEntity;whiteSpace=wrap;html=1;fontFamily=Helvetica;fontSize=11;fontColor=default;labelBackgroundColor=none;" parent="1" vertex="1">
                    <mxGeometry x="2916" y="-430" width="80" height="80" as="geometry"/>
                </mxCell>
                <mxCell id="243" value="ホーム画面" style="shape=umlBoundary;whiteSpace=wrap;html=1;fontFamily=Helvetica;fontSize=11;fontColor=default;labelBackgroundColor=none;" parent="1" vertex="1">
                    <mxGeometry x="2701" y="-190" width="100" height="80" as="geometry"/>
                </mxCell>
                <mxCell id="244" value="押したボタンに従った処理・ユースケース" style="ellipse;whiteSpace=wrap;html=1;fontFamily=Helvetica;fontSize=11;fontColor=default;labelBackgroundColor=none;" parent="1" vertex="1">
                    <mxGeometry x="2511" y="-370" width="140" height="70" as="geometry"/>
                </mxCell>
                <mxCell id="245" value="任意のボタンを押す&lt;br&gt;invoke" style="edgeStyle=orthogonalEdgeStyle;shape=connector;curved=1;rounded=1;html=1;strokeColor=default;align=left;verticalAlign=middle;fontFamily=Helvetica;fontSize=11;fontColor=default;labelBackgroundColor=none;endArrow=classic;" parent="1" source="34" target="246" edge="1">
                    <mxGeometry x="0.008" y="-30" relative="1" as="geometry">
                        <mxPoint x="427.5" y="840" as="sourcePoint"/>
                        <Array as="points">
                            <mxPoint x="600" y="840"/>
                            <mxPoint x="570" y="840"/>
                        </Array>
                        <mxPoint y="1" as="offset"/>
                    </mxGeometry>
                </mxCell>
                <mxCell id="246" value="UC: ゲームを終了する" style="ellipse;whiteSpace=wrap;html=1;fontFamily=Helvetica;fontSize=11;fontColor=default;labelBackgroundColor=none;" parent="1" vertex="1">
                    <mxGeometry x="490" y="990" width="140" height="70" as="geometry"/>
                </mxCell>
                <mxCell id="275" value="" style="ellipse;shape=ellipse;fillColor=#000000;strokeColor=#000000;labelBackgroundColor=none;" parent="1" vertex="1">
                    <mxGeometry x="1530" y="1323.08" width="30" height="30" as="geometry"/>
                </mxCell>
                <mxCell id="276" value="ログイン中" style="rounded=1;whiteSpace=wrap;html=1;labelBackgroundColor=none;" parent="1" vertex="1">
                    <mxGeometry x="1485" y="1470" width="120" height="60" as="geometry"/>
                </mxCell>
                <mxCell id="277" style="labelBackgroundColor=none;" parent="1" source="275" target="276" edge="1">
                    <mxGeometry relative="1" as="geometry"/>
                </mxCell>
                <mxCell id="302" value="ログイン済" style="edgeLabel;html=1;align=center;verticalAlign=middle;resizable=0;points=[];fontFamily=Helvetica;fontSize=11;fontColor=default;labelBackgroundColor=none;" parent="277" vertex="1" connectable="0">
                    <mxGeometry x="-0.0043" y="-1" relative="1" as="geometry">
                        <mxPoint as="offset"/>
                    </mxGeometry>
                </mxCell>
                <mxCell id="278" value="未ログイン" style="rounded=1;whiteSpace=wrap;html=1;labelBackgroundColor=none;" parent="1" vertex="1">
                    <mxGeometry x="1695" y="1390" width="120" height="60" as="geometry"/>
                </mxCell>
                <mxCell id="279" value="未ログイン" style="labelBackgroundColor=none;" parent="1" source="275" target="278" edge="1">
                    <mxGeometry relative="1" as="geometry">
                        <mxPoint x="1570" y="1557.5862068965516" as="sourcePoint"/>
                    </mxGeometry>
                </mxCell>
                <mxCell id="281" value="「一緒に過ごす」ボタン" style="labelBackgroundColor=none;" parent="1" source="276" target="298" edge="1">
                    <mxGeometry relative="1" as="geometry">
                        <mxPoint x="1660" y="1510" as="sourcePoint"/>
                        <mxPoint x="1660" y="1670" as="targetPoint"/>
                    </mxGeometry>
                </mxCell>
                <mxCell id="282" value="ログイン成功" style="labelBackgroundColor=none;" parent="1" source="278" target="276" edge="1">
                    <mxGeometry relative="1" as="geometry"/>
                </mxCell>
                <mxCell id="286" value="エラー表示" style="rounded=1;whiteSpace=wrap;html=1;labelBackgroundColor=none;" parent="1" vertex="1">
                    <mxGeometry x="1755" y="1690" width="120" height="60" as="geometry"/>
                </mxCell>
                <mxCell id="287" value="内部状態取得失敗" style="labelBackgroundColor=none;" parent="1" source="300" target="286" edge="1">
                    <mxGeometry relative="1" as="geometry"/>
                </mxCell>
                <mxCell id="289" value="おもちゃで遊ぶ画面" style="rounded=1;whiteSpace=wrap;html=1;labelBackgroundColor=none;" parent="1" vertex="1">
                    <mxGeometry x="1465" y="1880" width="160" height="60" as="geometry"/>
                </mxCell>
                <mxCell id="291" style="edgeStyle=orthogonalEdgeStyle;shape=connector;curved=1;rounded=1;html=1;strokeColor=default;align=center;verticalAlign=middle;fontFamily=Helvetica;fontSize=11;fontColor=default;labelBackgroundColor=none;endArrow=classic;" parent="1" source="295" target="276" edge="1">
                    <mxGeometry relative="1" as="geometry">
                        <Array as="points">
                            <mxPoint x="1390" y="2070"/>
                            <mxPoint x="1390" y="1500"/>
                        </Array>
                        <mxPoint x="1475" y="1720" as="targetPoint"/>
                    </mxGeometry>
                </mxCell>
                <mxCell id="295" value="終了処理中" style="rounded=1;whiteSpace=wrap;html=1;labelBackgroundColor=none;" parent="1" vertex="1">
                    <mxGeometry x="1465" y="2040" width="160" height="60" as="geometry"/>
                </mxCell>
                <mxCell id="296" value="終了" style="labelBackgroundColor=none;" parent="1" source="289" target="295" edge="1">
                    <mxGeometry relative="1" as="geometry">
                        <mxPoint x="1510" y="1940" as="sourcePoint"/>
                        <mxPoint x="1510" y="2030" as="targetPoint"/>
                        <mxPoint as="offset"/>
                    </mxGeometry>
                </mxCell>
                <mxCell id="297" value="" style="edgeStyle=orthogonalEdgeStyle;shape=connector;curved=1;rounded=1;html=1;strokeColor=default;align=center;verticalAlign=middle;fontFamily=Helvetica;fontSize=11;fontColor=default;labelBackgroundColor=none;endArrow=classic;" parent="1" source="298" target="300" edge="1">
                    <mxGeometry relative="1" as="geometry">
                        <mxPoint x="1545" y="1710" as="targetPoint"/>
                    </mxGeometry>
                </mxCell>
                <mxCell id="298" value="ゲーム開始待ち" style="rounded=1;whiteSpace=wrap;html=1;labelBackgroundColor=none;" parent="1" vertex="1">
                    <mxGeometry x="1475" y="1600" width="140" height="60" as="geometry"/>
                </mxCell>
                <mxCell id="299" value="&lt;span style=&quot;color: rgb(0, 0, 0);&quot;&gt;内部状態取得成功&lt;/span&gt;" style="edgeStyle=orthogonalEdgeStyle;shape=connector;curved=1;rounded=1;html=1;strokeColor=default;align=center;verticalAlign=middle;fontFamily=Helvetica;fontSize=11;fontColor=default;labelBackgroundColor=none;endArrow=classic;" parent="1" source="300" target="289" edge="1">
                    <mxGeometry relative="1" as="geometry"/>
                </mxCell>
                <mxCell id="300" value="ねこの内部状態読み込み中" style="rounded=1;whiteSpace=wrap;html=1;labelBackgroundColor=none;" parent="1" vertex="1">
                    <mxGeometry x="1465" y="1710" width="160" height="60" as="geometry"/>
                </mxCell>
                <mxCell id="303" value="基盤系の&lt;span style=&quot;color: rgb(63, 63, 63); background-color: transparent;&quot;&gt;共通処理&lt;/span&gt;" style="shape=folder;fontStyle=1;tabWidth=110;tabHeight=30;tabPosition=left;html=1;boundedLbl=1;labelInHeader=1;container=0;collapsible=0;whiteSpace=wrap;labelBackgroundColor=none;" parent="1" vertex="1">
                    <mxGeometry x="2169" y="-1570" width="1200" height="700" as="geometry"/>
                </mxCell>
                <mxCell id="304" value="ねこと出会う" style="shape=folder;fontStyle=1;tabWidth=110;tabHeight=30;tabPosition=left;html=1;boundedLbl=1;labelInHeader=1;container=0;collapsible=0;whiteSpace=wrap;labelBackgroundColor=none;" parent="1" vertex="1">
                    <mxGeometry x="15" y="-930" width="2125" height="870" as="geometry"/>
                </mxCell>
                <mxCell id="305" value="&lt;div&gt;&lt;font color=&quot;#000000&quot;&gt;#### UC: ねこと出会う&lt;/font&gt;&lt;/div&gt;&lt;div&gt;&lt;font color=&quot;#000000&quot;&gt;- システムは、全てのねこマスタを取得し、ねこを選択肢として「ねこと出会う」画面を表示する&lt;/font&gt;&lt;/div&gt;&lt;div&gt;&lt;font color=&quot;#000000&quot;&gt;- ユーザーは、ねこを選択する&lt;/font&gt;&lt;/div&gt;&lt;div&gt;&lt;font color=&quot;#000000&quot;&gt;- システムは、「ねこプロフィール設定」画面を表示する&lt;/font&gt;&lt;/div&gt;&lt;div&gt;&lt;font color=&quot;#000000&quot;&gt;- ユーザーは、ねこの名前を入力し、「&lt;/font&gt;&lt;span style=&quot;color: rgb(63, 63, 63);&quot;&gt;決定」ボタンを押す&lt;/span&gt;&lt;/div&gt;&lt;div&gt;&lt;span style=&quot;color: rgb(63, 63, 63);&quot;&gt;- システムは、ねこを保存し、登録完了メッセージとともに「ホーム画面」を表示する&lt;/span&gt;&lt;/div&gt;&lt;div&gt;&lt;span style=&quot;color: rgb(63, 63, 63);&quot;&gt;&lt;br&gt;&lt;/span&gt;&lt;/div&gt;&lt;div&gt;&lt;span style=&quot;color: rgb(63, 63, 63);&quot;&gt;&amp;nbsp;**代替コース**&amp;nbsp;&lt;/span&gt;&lt;/div&gt;&lt;div&gt;&lt;span style=&quot;color: rgb(63, 63, 63);&quot;&gt;- ユーザーはログインしていない：「UC: ログインする」をinvokeする&lt;/span&gt;&lt;/div&gt;&lt;div&gt;&lt;span style=&quot;color: rgb(63, 63, 63);&quot;&gt;- ねこが取得できない：選択可能なねこがいない旨（不具合）とともにエラー画面を表示する。&lt;/span&gt;&lt;/div&gt;&lt;div&gt;&lt;span style=&quot;color: rgb(63, 63, 63);&quot;&gt;- ユーザーはねこを選択せずに終了する/名前を入力する前に終了する：システムは、ページを離れると保存されない旨をポップアップ表示する。&lt;/span&gt;&lt;/div&gt;&lt;div&gt;&lt;span style=&quot;color: rgb(63, 63, 63);&quot;&gt;- ユーザーが入力したねこの名前が0文字 or 11文字以上：名前が長すぎる旨を表示し、「猫プロフィール設定」画面を表示する&lt;/span&gt;&lt;/div&gt;&lt;div&gt;&lt;span style=&quot;color: rgb(63, 63, 63);&quot;&gt;- システムはねこの保存に失敗する：システムは、ねこの保存に失敗した旨（リトライを促す・不具合）とともにエラー画面を表示する。&lt;/span&gt;&lt;/div&gt;" style="shape=note;whiteSpace=wrap;html=1;backgroundOutline=1;darkOpacity=0.05;align=left;labelBackgroundColor=none;" parent="1" vertex="1">
                    <mxGeometry x="40.41" y="-880" width="327.53" height="346.92" as="geometry"/>
                </mxCell>
                <mxCell id="306" value="&lt;div&gt;&lt;span style=&quot;&quot;&gt;#### UC: エラーを表示する&lt;/span&gt;&lt;/div&gt;&lt;div&gt;&lt;span style=&quot;&quot;&gt;- 各処理中にエラーが発生した&lt;/span&gt;&lt;/div&gt;&lt;div&gt;- システムは、エラーログを保存する。システムは、エラーメッセージとともに「エラー画面」を表示する。&lt;/div&gt;&lt;div&gt;- ユーザーは&lt;span style=&quot;background-color: rgb(255, 255, 255); color: rgb(0, 0, 0); font-size: 11px; text-align: center; text-wrap-mode: nowrap;&quot;&gt;「直前の画面に戻る&lt;/span&gt;&lt;span style=&quot;color: rgb(63, 63, 63); background-color: transparent;&quot;&gt;」ボタンを押す&lt;/span&gt;&lt;/div&gt;&lt;div&gt;- システムは、直前の画面を（入力値は可能な限りそのままで）表示する。&lt;/div&gt;&lt;div&gt;&lt;br&gt;&lt;/div&gt;&lt;div&gt;&amp;nbsp;**代替コース**&amp;nbsp;&lt;/div&gt;&lt;div&gt;- システムはエラーログの保存に失敗する：エラーログの保存はせずに、エラーメッセージの表示に進む&lt;/div&gt;" style="shape=note;whiteSpace=wrap;html=1;backgroundOutline=1;darkOpacity=0.05;align=left;labelBackgroundColor=none;" parent="1" vertex="1">
                    <mxGeometry x="2178" y="-1530" width="336.67" height="220" as="geometry"/>
                </mxCell>
                <mxCell id="309" style="edgeStyle=orthogonalEdgeStyle;shape=connector;curved=1;rounded=1;html=1;strokeColor=default;align=center;verticalAlign=middle;fontFamily=Helvetica;fontSize=11;fontColor=default;labelBackgroundColor=none;endArrow=classic;" parent="1" source="307" target="308" edge="1">
                    <mxGeometry relative="1" as="geometry"/>
                </mxCell>
                <mxCell id="333" style="edgeStyle=orthogonalEdgeStyle;shape=connector;curved=1;rounded=1;html=1;strokeColor=default;align=center;verticalAlign=middle;fontFamily=Helvetica;fontSize=11;fontColor=default;labelBackgroundColor=none;endArrow=classic;" parent="1" source="307" target="323" edge="1">
                    <mxGeometry relative="1" as="geometry">
                        <Array as="points">
                            <mxPoint x="430" y="-420"/>
                        </Array>
                    </mxGeometry>
                </mxCell>
                <mxCell id="307" value="ユーザー" style="shape=umlActor;verticalLabelPosition=bottom;verticalAlign=top;html=1;fontFamily=Helvetica;fontSize=11;fontColor=default;labelBackgroundColor=none;" parent="1" vertex="1">
                    <mxGeometry x="425" y="-575" width="30" height="60" as="geometry"/>
                </mxCell>
                <mxCell id="322" value="ねこを選択する" style="edgeStyle=orthogonalEdgeStyle;shape=connector;curved=1;rounded=1;html=1;strokeColor=default;align=center;verticalAlign=middle;fontFamily=Helvetica;fontSize=11;fontColor=default;labelBackgroundColor=none;endArrow=classic;" parent="1" source="308" target="321" edge="1">
                    <mxGeometry relative="1" as="geometry"/>
                </mxCell>
                <mxCell id="342" value="ねこを選択せずにページを離れる" style="edgeStyle=orthogonalEdgeStyle;shape=connector;curved=1;rounded=1;html=1;strokeColor=default;align=center;verticalAlign=middle;fontFamily=Helvetica;fontSize=11;fontColor=default;labelBackgroundColor=default;endArrow=classic;" parent="1" source="308" edge="1">
                    <mxGeometry relative="1" as="geometry">
                        <mxPoint x="1070" y="-554" as="targetPoint"/>
                    </mxGeometry>
                </mxCell>
                <mxCell id="308" value="「&lt;span style=&quot;color: rgb(63, 63, 63);&quot;&gt;ねこと出会う」画面&lt;/span&gt;" style="shape=umlBoundary;whiteSpace=wrap;html=1;fontFamily=Helvetica;fontSize=11;fontColor=default;labelBackgroundColor=none;" parent="1" vertex="1">
                    <mxGeometry x="605" y="-585" width="100" height="80" as="geometry"/>
                </mxCell>
                <mxCell id="311" style="edgeStyle=orthogonalEdgeStyle;shape=connector;curved=1;rounded=1;html=1;strokeColor=default;align=center;verticalAlign=middle;fontFamily=Helvetica;fontSize=11;fontColor=default;labelBackgroundColor=none;endArrow=classic;" parent="1" source="334" target="308" edge="1">
                    <mxGeometry relative="1" as="geometry">
                        <Array as="points">
                            <mxPoint x="895" y="-610"/>
                            <mxPoint x="655" y="-610"/>
                        </Array>
                    </mxGeometry>
                </mxCell>
                <mxCell id="318" style="edgeStyle=orthogonalEdgeStyle;shape=connector;curved=1;rounded=1;html=1;strokeColor=default;align=center;verticalAlign=middle;fontFamily=Helvetica;fontSize=11;fontColor=default;labelBackgroundColor=none;endArrow=classic;" parent="1" source="310" target="317" edge="1">
                    <mxGeometry relative="1" as="geometry"/>
                </mxCell>
                <mxCell id="310" value="全てのねこの種を取得する" style="ellipse;shape=umlControl;whiteSpace=wrap;html=1;fontFamily=Helvetica;fontSize=11;fontColor=default;labelBackgroundColor=none;" parent="1" vertex="1">
                    <mxGeometry x="620" y="-800" width="70" height="80" as="geometry"/>
                </mxCell>
                <mxCell id="314" value="No&lt;br&gt;invoke" style="edgeStyle=orthogonalEdgeStyle;shape=connector;curved=1;rounded=1;html=1;strokeColor=default;align=center;verticalAlign=middle;fontFamily=Helvetica;fontSize=11;fontColor=default;labelBackgroundColor=none;endArrow=classic;" parent="1" source="312" target="313" edge="1">
                    <mxGeometry relative="1" as="geometry"/>
                </mxCell>
                <mxCell id="315" value="Yes" style="edgeStyle=orthogonalEdgeStyle;shape=connector;curved=1;rounded=1;html=1;strokeColor=default;align=center;verticalAlign=middle;fontFamily=Helvetica;fontSize=11;fontColor=default;labelBackgroundColor=none;endArrow=classic;" parent="1" source="312" target="310" edge="1">
                    <mxGeometry relative="1" as="geometry">
                        <Array as="points">
                            <mxPoint x="580" y="-750"/>
                        </Array>
                    </mxGeometry>
                </mxCell>
                <mxCell id="312" value="ユーザーはログイン済みか？" style="ellipse;shape=umlControl;whiteSpace=wrap;html=1;fontFamily=Helvetica;fontSize=11;fontColor=default;labelBackgroundColor=none;" parent="1" vertex="1">
                    <mxGeometry x="545" y="-890" width="70" height="80" as="geometry"/>
                </mxCell>
                <mxCell id="313" value="UC: ログインする" style="ellipse;whiteSpace=wrap;html=1;fontFamily=Helvetica;fontSize=11;fontColor=default;labelBackgroundColor=none;fillColor=#FFFFCC;" parent="1" vertex="1">
                    <mxGeometry x="835" y="-890" width="140" height="70" as="geometry"/>
                </mxCell>
                <mxCell id="317" value="ねこの種" style="ellipse;shape=umlEntity;whiteSpace=wrap;html=1;fontFamily=Helvetica;fontSize=11;fontColor=default;labelBackgroundColor=none;" parent="1" vertex="1">
                    <mxGeometry x="800" y="-800" width="80" height="80" as="geometry"/>
                </mxCell>
                <mxCell id="320" value="" style="edgeStyle=orthogonalEdgeStyle;shape=connector;curved=1;rounded=1;html=1;strokeColor=default;align=center;verticalAlign=middle;fontFamily=Helvetica;fontSize=11;fontColor=default;labelBackgroundColor=none;endArrow=classic;" parent="1" source="310" target="319" edge="1">
                    <mxGeometry relative="1" as="geometry">
                        <mxPoint x="655" y="-720" as="sourcePoint"/>
                        <mxPoint x="655" y="-603" as="targetPoint"/>
                    </mxGeometry>
                </mxCell>
                <mxCell id="335" value="" style="edgeStyle=orthogonalEdgeStyle;shape=connector;curved=1;rounded=1;html=1;strokeColor=default;align=center;verticalAlign=middle;fontFamily=Helvetica;fontSize=11;fontColor=default;labelBackgroundColor=none;endArrow=classic;" parent="1" source="319" target="334" edge="1">
                    <mxGeometry relative="1" as="geometry"/>
                </mxCell>
                <mxCell id="336" value="Yes" style="edgeLabel;html=1;align=center;verticalAlign=middle;resizable=0;points=[];fontFamily=Helvetica;fontSize=11;fontColor=default;labelBackgroundColor=none;" parent="335" vertex="1" connectable="0">
                    <mxGeometry x="-0.0927" y="-5" relative="1" as="geometry">
                        <mxPoint as="offset"/>
                    </mxGeometry>
                </mxCell>
                <mxCell id="338" value="No" style="edgeStyle=orthogonalEdgeStyle;shape=connector;curved=1;rounded=1;html=1;strokeColor=default;align=center;verticalAlign=middle;fontFamily=Helvetica;fontSize=11;fontColor=default;labelBackgroundColor=none;endArrow=classic;" parent="1" source="319" target="337" edge="1">
                    <mxGeometry relative="1" as="geometry"/>
                </mxCell>
                <mxCell id="319" value="ねこが存在するか？" style="ellipse;shape=umlControl;whiteSpace=wrap;html=1;fontFamily=Helvetica;fontSize=11;fontColor=default;labelBackgroundColor=none;" parent="1" vertex="1">
                    <mxGeometry x="730" y="-710" width="70" height="80" as="geometry"/>
                </mxCell>
                <mxCell id="324" value="" style="edgeStyle=orthogonalEdgeStyle;shape=connector;curved=1;rounded=1;html=1;strokeColor=default;align=center;verticalAlign=middle;fontFamily=Helvetica;fontSize=11;fontColor=default;labelBackgroundColor=none;endArrow=classic;entryX=0.85;entryY=0.125;entryDx=0;entryDy=0;entryPerimeter=0;" parent="1" source="321" target="323" edge="1">
                    <mxGeometry relative="1" as="geometry">
                        <Array as="points">
                            <mxPoint x="765" y="-470"/>
                            <mxPoint x="765" y="-450"/>
                        </Array>
                    </mxGeometry>
                </mxCell>
                <mxCell id="321" value="表示する" style="ellipse;shape=umlControl;whiteSpace=wrap;html=1;fontFamily=Helvetica;fontSize=11;fontColor=default;labelBackgroundColor=none;" parent="1" vertex="1">
                    <mxGeometry x="845" y="-540" width="70" height="80" as="geometry"/>
                </mxCell>
                <mxCell id="345" value="名前を入力せずに終了する" style="edgeStyle=orthogonalEdgeStyle;shape=connector;curved=1;rounded=1;html=1;strokeColor=default;align=center;verticalAlign=middle;fontFamily=Helvetica;fontSize=11;fontColor=default;labelBackgroundColor=default;endArrow=classic;" parent="1" source="323" target="344" edge="1">
                    <mxGeometry x="0.2199" y="20" relative="1" as="geometry">
                        <mxPoint as="offset"/>
                    </mxGeometry>
                </mxCell>
                <mxCell id="323" value="「&lt;span style=&quot;color: rgb(63, 63, 63);&quot;&gt;ねこプロフィール設定」画面&lt;/span&gt;" style="shape=umlBoundary;whiteSpace=wrap;html=1;fontFamily=Helvetica;fontSize=11;fontColor=default;labelBackgroundColor=none;" parent="1" vertex="1">
                    <mxGeometry x="600" y="-460" width="100" height="80" as="geometry"/>
                </mxCell>
                <mxCell id="328" style="edgeStyle=orthogonalEdgeStyle;shape=connector;curved=1;rounded=1;html=1;strokeColor=default;align=center;verticalAlign=middle;fontFamily=Helvetica;fontSize=11;fontColor=default;labelBackgroundColor=none;endArrow=classic;" parent="1" source="347" target="327" edge="1">
                    <mxGeometry relative="1" as="geometry"/>
                </mxCell>
                <mxCell id="330" style="edgeStyle=orthogonalEdgeStyle;shape=connector;curved=1;rounded=1;html=1;strokeColor=default;align=center;verticalAlign=middle;fontFamily=Helvetica;fontSize=11;fontColor=default;labelBackgroundColor=none;endArrow=classic;" parent="1" source="347" target="329" edge="1">
                    <mxGeometry relative="1" as="geometry"/>
                </mxCell>
                <mxCell id="348" value="Yes" style="edgeStyle=orthogonalEdgeStyle;shape=connector;curved=1;rounded=1;html=1;strokeColor=default;align=center;verticalAlign=middle;fontFamily=Helvetica;fontSize=11;fontColor=default;labelBackgroundColor=default;endArrow=classic;" parent="1" source="325" target="347" edge="1">
                    <mxGeometry relative="1" as="geometry"/>
                </mxCell>
                <mxCell id="350" value="No&lt;br&gt;0 or 11以上" style="edgeStyle=orthogonalEdgeStyle;shape=connector;curved=1;rounded=1;html=1;strokeColor=default;align=left;verticalAlign=middle;fontFamily=Helvetica;fontSize=11;fontColor=default;labelBackgroundColor=default;endArrow=classic;" parent="1" source="325" target="349" edge="1">
                    <mxGeometry x="0.1667" relative="1" as="geometry">
                        <mxPoint x="1" as="offset"/>
                    </mxGeometry>
                </mxCell>
                <mxCell id="325" value="名前の長さは適切か？" style="ellipse;shape=umlControl;whiteSpace=wrap;html=1;fontFamily=Helvetica;fontSize=11;fontColor=default;labelBackgroundColor=none;" parent="1" vertex="1">
                    <mxGeometry x="895" y="-360" width="70" height="80" as="geometry"/>
                </mxCell>
                <mxCell id="326" value="ねこの名前を入力する" style="edgeStyle=orthogonalEdgeStyle;shape=connector;curved=1;rounded=1;html=1;strokeColor=default;align=center;verticalAlign=middle;fontFamily=Helvetica;fontSize=11;fontColor=default;labelBackgroundColor=none;endArrow=classic;" parent="1" source="323" target="325" edge="1">
                    <mxGeometry x="0.0672" y="-20" relative="1" as="geometry">
                        <Array as="points">
                            <mxPoint x="910" y="-400"/>
                        </Array>
                        <mxPoint as="offset"/>
                    </mxGeometry>
                </mxCell>
                <mxCell id="327" value="ねこ" style="ellipse;shape=umlEntity;whiteSpace=wrap;html=1;fontFamily=Helvetica;fontSize=11;fontColor=default;labelBackgroundColor=none;" parent="1" vertex="1">
                    <mxGeometry x="1095" y="-370" width="80" height="80" as="geometry"/>
                </mxCell>
                <mxCell id="332" style="edgeStyle=orthogonalEdgeStyle;shape=connector;curved=1;rounded=1;html=1;strokeColor=default;align=center;verticalAlign=middle;fontFamily=Helvetica;fontSize=11;fontColor=default;labelBackgroundColor=none;endArrow=classic;" parent="1" source="329" target="331" edge="1">
                    <mxGeometry relative="1" as="geometry"/>
                </mxCell>
                <mxCell id="329" value="登録完了メッセージとともに表示する" style="ellipse;shape=umlControl;whiteSpace=wrap;html=1;fontFamily=Helvetica;fontSize=11;fontColor=default;labelBackgroundColor=none;" parent="1" vertex="1">
                    <mxGeometry x="785" y="-270" width="70" height="80" as="geometry"/>
                </mxCell>
                <mxCell id="331" value="ホーム画面" style="shape=umlBoundary;whiteSpace=wrap;html=1;fontFamily=Helvetica;fontSize=11;fontColor=default;labelBackgroundColor=none;" parent="1" vertex="1">
                    <mxGeometry x="600" y="-260" width="100" height="80" as="geometry"/>
                </mxCell>
                <mxCell id="334" value="ねこを選択肢として表示する" style="ellipse;shape=umlControl;whiteSpace=wrap;html=1;fontFamily=Helvetica;fontSize=11;fontColor=default;labelBackgroundColor=none;" parent="1" vertex="1">
                    <mxGeometry x="965" y="-665" width="70" height="80" as="geometry"/>
                </mxCell>
                <mxCell id="340" value="invoke" style="edgeStyle=orthogonalEdgeStyle;shape=connector;curved=1;rounded=1;html=1;strokeColor=default;align=center;verticalAlign=middle;fontFamily=Helvetica;fontSize=11;fontColor=default;labelBackgroundColor=none;endArrow=classic;" parent="1" source="337" target="339" edge="1">
                    <mxGeometry relative="1" as="geometry"/>
                </mxCell>
                <mxCell id="382" style="edgeStyle=orthogonalEdgeStyle;shape=connector;curved=1;rounded=1;html=1;strokeColor=default;align=center;verticalAlign=middle;fontFamily=Helvetica;fontSize=11;fontColor=default;labelBackgroundColor=default;endArrow=classic;" parent="1" source="337" target="381" edge="1">
                    <mxGeometry relative="1" as="geometry"/>
                </mxCell>
                <mxCell id="337" value="選択可能なねこがいない（不具合）旨のエラー情報と直前の画面情報を保存する" style="ellipse;shape=umlControl;whiteSpace=wrap;html=1;fontFamily=Helvetica;fontSize=11;fontColor=default;labelBackgroundColor=none;fillColor=#FFFFCC;" parent="1" vertex="1">
                    <mxGeometry x="965" y="-780" width="70" height="80" as="geometry"/>
                </mxCell>
                <mxCell id="339" value="UC: エラーを表示する" style="ellipse;whiteSpace=wrap;html=1;fontFamily=Helvetica;fontSize=11;fontColor=default;labelBackgroundColor=none;fillColor=#FFFFCC;" parent="1" vertex="1">
                    <mxGeometry x="1270" y="-850" width="140" height="70" as="geometry"/>
                </mxCell>
                <mxCell id="344" value="ページを離れると保存されない旨をポップアップ表示する" style="ellipse;shape=umlControl;whiteSpace=wrap;html=1;fontFamily=Helvetica;fontSize=11;fontColor=default;labelBackgroundColor=none;fillColor=#FFFFCC;" parent="1" vertex="1">
                    <mxGeometry x="1070" y="-595" width="70" height="80" as="geometry"/>
                </mxCell>
                <mxCell id="353" value="保存に失敗した" style="edgeStyle=orthogonalEdgeStyle;shape=connector;curved=1;rounded=1;html=1;strokeColor=default;align=center;verticalAlign=middle;fontFamily=Helvetica;fontSize=11;fontColor=default;labelBackgroundColor=default;endArrow=classic;" parent="1" source="347" target="352" edge="1">
                    <mxGeometry relative="1" as="geometry">
                        <Array as="points">
                            <mxPoint x="1021" y="-110"/>
                        </Array>
                    </mxGeometry>
                </mxCell>
                <mxCell id="347" value="ねこを保存する" style="ellipse;shape=umlControl;whiteSpace=wrap;html=1;fontFamily=Helvetica;fontSize=11;fontColor=default;labelBackgroundColor=none;" parent="1" vertex="1">
                    <mxGeometry x="985.5" y="-270" width="70" height="80" as="geometry"/>
                </mxCell>
                <mxCell id="351" style="edgeStyle=orthogonalEdgeStyle;shape=connector;curved=1;rounded=1;html=1;strokeColor=default;align=center;verticalAlign=middle;fontFamily=Helvetica;fontSize=11;fontColor=default;labelBackgroundColor=default;endArrow=classic;" parent="1" source="349" target="323" edge="1">
                    <mxGeometry relative="1" as="geometry"/>
                </mxCell>
                <mxCell id="349" value="名前が短すぎる/長すぎる旨とともに表示する" style="ellipse;shape=umlControl;whiteSpace=wrap;html=1;fontFamily=Helvetica;fontSize=11;fontColor=default;labelBackgroundColor=none;fillColor=#FFFFCC;" parent="1" vertex="1">
                    <mxGeometry x="705" y="-360" width="70" height="80" as="geometry"/>
                </mxCell>
                <mxCell id="352" value="ねこの保存に失敗した旨を表示する" style="ellipse;shape=umlControl;whiteSpace=wrap;html=1;fontFamily=Helvetica;fontSize=11;fontColor=default;labelBackgroundColor=none;" parent="1" vertex="1">
                    <mxGeometry x="870" y="-150" width="70" height="80" as="geometry"/>
                </mxCell>
                <mxCell id="354" value="invoke" style="edgeStyle=orthogonalEdgeStyle;shape=connector;curved=1;rounded=1;html=1;strokeColor=default;align=center;verticalAlign=middle;fontFamily=Helvetica;fontSize=11;fontColor=default;labelBackgroundColor=none;endArrow=classic;" parent="1" source="352" target="355" edge="1">
                    <mxGeometry relative="1" as="geometry">
                        <mxPoint x="567.5" y="-60.52999999999997" as="sourcePoint"/>
                    </mxGeometry>
                </mxCell>
                <mxCell id="355" value="UC: エラーを表示する" style="ellipse;whiteSpace=wrap;html=1;fontFamily=Helvetica;fontSize=11;fontColor=default;labelBackgroundColor=none;fillColor=#FFFFCC;" parent="1" vertex="1">
                    <mxGeometry x="605" y="-144.99999999999997" width="140" height="70" as="geometry"/>
                </mxCell>
                <mxCell id="376" style="edgeStyle=orthogonalEdgeStyle;shape=connector;curved=1;rounded=1;html=1;strokeColor=default;align=center;verticalAlign=middle;fontFamily=Helvetica;fontSize=11;fontColor=default;labelBackgroundColor=default;endArrow=classic;" parent="1" source="364" target="366" edge="1">
                    <mxGeometry relative="1" as="geometry"/>
                </mxCell>
                <mxCell id="364" value="ユーザー" style="shape=umlActor;verticalLabelPosition=bottom;verticalAlign=top;html=1;fontFamily=Helvetica;fontSize=11;fontColor=default;labelBackgroundColor=default;" parent="1" vertex="1">
                    <mxGeometry x="2579" y="-1440" width="30" height="60" as="geometry"/>
                </mxCell>
                <mxCell id="371" style="edgeStyle=orthogonalEdgeStyle;shape=connector;curved=1;rounded=1;html=1;strokeColor=default;align=center;verticalAlign=middle;fontFamily=Helvetica;fontSize=11;fontColor=default;labelBackgroundColor=default;endArrow=classic;" parent="1" source="365" target="368" edge="1">
                    <mxGeometry relative="1" as="geometry"/>
                </mxCell>
                <mxCell id="365" value="何らかのエラーが発生した" style="ellipse;shape=umlControl;whiteSpace=wrap;html=1;fontFamily=Helvetica;fontSize=11;fontColor=default;labelBackgroundColor=default;" parent="1" vertex="1">
                    <mxGeometry x="2899" y="-1450" width="70" height="80" as="geometry"/>
                </mxCell>
                <mxCell id="367" style="edgeStyle=orthogonalEdgeStyle;shape=connector;curved=1;rounded=1;html=1;strokeColor=default;align=center;verticalAlign=middle;fontFamily=Helvetica;fontSize=11;fontColor=default;labelBackgroundColor=default;endArrow=classic;" parent="1" source="366" target="365" edge="1">
                    <mxGeometry relative="1" as="geometry"/>
                </mxCell>
                <mxCell id="366" value="各画面" style="shape=umlBoundary;whiteSpace=wrap;html=1;fontFamily=Helvetica;fontSize=11;fontColor=default;labelBackgroundColor=default;" parent="1" vertex="1">
                    <mxGeometry x="2709" y="-1450" width="100" height="80" as="geometry"/>
                </mxCell>
                <mxCell id="370" style="edgeStyle=orthogonalEdgeStyle;shape=connector;curved=1;rounded=1;html=1;strokeColor=default;align=center;verticalAlign=middle;fontFamily=Helvetica;fontSize=11;fontColor=default;labelBackgroundColor=default;endArrow=classic;" parent="1" source="386" target="369" edge="1">
                    <mxGeometry relative="1" as="geometry">
                        <Array as="points">
                            <mxPoint x="3094" y="-1290"/>
                        </Array>
                    </mxGeometry>
                </mxCell>
                <mxCell id="373" style="edgeStyle=orthogonalEdgeStyle;shape=connector;curved=1;rounded=1;html=1;strokeColor=default;align=center;verticalAlign=middle;fontFamily=Helvetica;fontSize=11;fontColor=default;labelBackgroundColor=default;endArrow=classic;" parent="1" source="386" target="372" edge="1">
                    <mxGeometry relative="1" as="geometry">
                        <Array as="points"/>
                    </mxGeometry>
                </mxCell>
                <mxCell id="388" style="edgeStyle=orthogonalEdgeStyle;shape=connector;curved=1;rounded=1;html=1;strokeColor=default;align=center;verticalAlign=middle;fontFamily=Helvetica;fontSize=11;fontColor=default;labelBackgroundColor=default;endArrow=classic;" parent="1" source="368" target="384" edge="1">
                    <mxGeometry relative="1" as="geometry"/>
                </mxCell>
                <mxCell id="389" style="edgeStyle=orthogonalEdgeStyle;shape=connector;curved=1;rounded=1;html=1;strokeColor=default;align=center;verticalAlign=middle;fontFamily=Helvetica;fontSize=11;fontColor=default;labelBackgroundColor=default;endArrow=classic;" parent="1" source="368" target="385" edge="1">
                    <mxGeometry relative="1" as="geometry"/>
                </mxCell>
                <mxCell id="368" value="エラー情報と直前の画面情報を取得する" style="ellipse;shape=umlControl;whiteSpace=wrap;html=1;fontFamily=Helvetica;fontSize=11;fontColor=default;labelBackgroundColor=default;" parent="1" vertex="1">
                    <mxGeometry x="3128" y="-1450" width="70" height="80" as="geometry"/>
                </mxCell>
                <mxCell id="369" value="エラーログ" style="ellipse;shape=umlEntity;whiteSpace=wrap;html=1;fontFamily=Helvetica;fontSize=11;fontColor=default;labelBackgroundColor=default;" parent="1" vertex="1">
                    <mxGeometry x="3054" y="-1210" width="80" height="80" as="geometry"/>
                </mxCell>
                <mxCell id="375" style="edgeStyle=orthogonalEdgeStyle;shape=connector;curved=1;rounded=1;html=1;strokeColor=default;align=center;verticalAlign=middle;fontFamily=Helvetica;fontSize=11;fontColor=default;labelBackgroundColor=default;endArrow=classic;" parent="1" source="372" target="374" edge="1">
                    <mxGeometry relative="1" as="geometry"/>
                </mxCell>
                <mxCell id="372" value="エラーメッセージを表示する" style="ellipse;shape=umlControl;whiteSpace=wrap;html=1;fontFamily=Helvetica;fontSize=11;fontColor=default;labelBackgroundColor=default;" parent="1" vertex="1">
                    <mxGeometry x="2899" y="-1345" width="70" height="80" as="geometry"/>
                </mxCell>
                <mxCell id="378" value="「直前の画面に戻る」ボタンを押す" style="edgeStyle=orthogonalEdgeStyle;shape=connector;curved=1;rounded=1;html=1;strokeColor=default;align=center;verticalAlign=middle;fontFamily=Helvetica;fontSize=11;fontColor=default;labelBackgroundColor=default;endArrow=classic;" parent="1" source="374" target="377" edge="1">
                    <mxGeometry relative="1" as="geometry"/>
                </mxCell>
                <mxCell id="374" value="エラー画面" style="shape=umlBoundary;whiteSpace=wrap;html=1;fontFamily=Helvetica;fontSize=11;fontColor=default;labelBackgroundColor=default;" parent="1" vertex="1">
                    <mxGeometry x="2709" y="-1310" width="100" height="80" as="geometry"/>
                </mxCell>
                <mxCell id="379" style="edgeStyle=orthogonalEdgeStyle;shape=connector;curved=1;rounded=1;html=1;strokeColor=default;align=center;verticalAlign=middle;fontFamily=Helvetica;fontSize=11;fontColor=default;labelBackgroundColor=default;endArrow=classic;" parent="1" source="391" target="366" edge="1">
                    <mxGeometry relative="1" as="geometry">
                        <Array as="points">
                            <mxPoint x="2649" y="-970"/>
                            <mxPoint x="2649" y="-1410"/>
                        </Array>
                    </mxGeometry>
                </mxCell>
                <mxCell id="390" style="edgeStyle=orthogonalEdgeStyle;shape=connector;curved=1;rounded=1;html=1;strokeColor=default;align=center;verticalAlign=middle;fontFamily=Helvetica;fontSize=11;fontColor=default;labelBackgroundColor=default;endArrow=classic;" parent="1" source="377" target="385" edge="1">
                    <mxGeometry relative="1" as="geometry"/>
                </mxCell>
                <mxCell id="392" value="" style="edgeStyle=orthogonalEdgeStyle;shape=connector;curved=1;rounded=1;html=1;strokeColor=default;align=center;verticalAlign=middle;fontFamily=Helvetica;fontSize=11;fontColor=default;labelBackgroundColor=default;endArrow=classic;" parent="1" source="377" target="391" edge="1">
                    <mxGeometry relative="1" as="geometry"/>
                </mxCell>
                <mxCell id="377" value="直前の画面情報を取得する" style="ellipse;shape=umlControl;whiteSpace=wrap;html=1;fontFamily=Helvetica;fontSize=11;fontColor=default;labelBackgroundColor=default;" parent="1" vertex="1">
                    <mxGeometry x="2724" y="-1130" width="70" height="80" as="geometry"/>
                </mxCell>
                <mxCell id="380" value="エラー情報" style="ellipse;shape=umlEntity;whiteSpace=wrap;html=1;fontFamily=Helvetica;fontSize=11;fontColor=default;labelBackgroundColor=none;" parent="1" vertex="1">
                    <mxGeometry x="1175" y="-660" width="80" height="80" as="geometry"/>
                </mxCell>
                <mxCell id="381" value="直前の画面情報" style="ellipse;shape=umlEntity;whiteSpace=wrap;html=1;fontFamily=Helvetica;fontSize=11;fontColor=default;labelBackgroundColor=none;" parent="1" vertex="1">
                    <mxGeometry x="1175" y="-750" width="80" height="80" as="geometry"/>
                </mxCell>
                <mxCell id="383" style="edgeStyle=orthogonalEdgeStyle;shape=connector;curved=1;rounded=1;html=1;strokeColor=default;align=center;verticalAlign=middle;fontFamily=Helvetica;fontSize=11;fontColor=default;labelBackgroundColor=default;endArrow=classic;" parent="1" source="337" target="380" edge="1">
                    <mxGeometry relative="1" as="geometry">
                        <Array as="points">
                            <mxPoint x="1000" y="-640"/>
                        </Array>
                    </mxGeometry>
                </mxCell>
                <mxCell id="384" value="エラー情報" style="ellipse;shape=umlEntity;whiteSpace=wrap;html=1;fontFamily=Helvetica;fontSize=11;fontColor=default;labelBackgroundColor=none;" parent="1" vertex="1">
                    <mxGeometry x="3269" y="-1500" width="80" height="80" as="geometry"/>
                </mxCell>
                <mxCell id="385" value="直前の画面情報" style="ellipse;shape=umlEntity;whiteSpace=wrap;html=1;fontFamily=Helvetica;fontSize=11;fontColor=default;labelBackgroundColor=none;" parent="1" vertex="1">
                    <mxGeometry x="3269" y="-1280" width="80" height="80" as="geometry"/>
                </mxCell>
                <mxCell id="387" value="" style="edgeStyle=orthogonalEdgeStyle;shape=connector;curved=1;rounded=1;html=1;strokeColor=default;align=center;verticalAlign=middle;fontFamily=Helvetica;fontSize=11;fontColor=default;labelBackgroundColor=default;endArrow=classic;" parent="1" source="368" target="386" edge="1">
                    <mxGeometry relative="1" as="geometry">
                        <mxPoint x="3094" y="-1360" as="sourcePoint"/>
                        <mxPoint x="2969" y="-1310" as="targetPoint"/>
                        <Array as="points">
                            <mxPoint x="3094" y="-1310"/>
                        </Array>
                    </mxGeometry>
                </mxCell>
                <mxCell id="393" value="保存に失敗する" style="edgeStyle=orthogonalEdgeStyle;shape=connector;curved=1;rounded=1;html=1;strokeColor=default;align=center;verticalAlign=middle;fontFamily=Helvetica;fontSize=11;fontColor=default;labelBackgroundColor=#FFFFCC;endArrow=classic;" parent="1" source="386" target="372" edge="1">
                    <mxGeometry relative="1" as="geometry">
                        <Array as="points">
                            <mxPoint x="3089" y="-1230"/>
                            <mxPoint x="2934" y="-1230"/>
                        </Array>
                    </mxGeometry>
                </mxCell>
                <mxCell id="386" value="エラーログを保存する" style="ellipse;shape=umlControl;whiteSpace=wrap;html=1;fontFamily=Helvetica;fontSize=11;fontColor=default;labelBackgroundColor=default;" parent="1" vertex="1">
                    <mxGeometry x="3054" y="-1345" width="70" height="80" as="geometry"/>
                </mxCell>
                <mxCell id="391" value="直前の画面を表示する" style="ellipse;shape=umlControl;whiteSpace=wrap;html=1;fontFamily=Helvetica;fontSize=11;fontColor=default;labelBackgroundColor=default;" parent="1" vertex="1">
                    <mxGeometry x="2724" y="-1020" width="70" height="80" as="geometry"/>
                </mxCell>
                <mxCell id="394" value="サインアップ" style="shape=folder;fontStyle=1;tabWidth=110;tabHeight=30;tabPosition=left;html=1;boundedLbl=1;labelInHeader=1;container=0;collapsible=0;whiteSpace=wrap;labelBackgroundColor=none;" parent="1" vertex="1">
                    <mxGeometry x="15" y="-1830" width="2115" height="870" as="geometry"/>
                </mxCell>
                <mxCell id="395" value="&lt;div&gt;&lt;font color=&quot;#000000&quot;&gt;#### UC: サインアップする&lt;/font&gt;&lt;/div&gt;&lt;div&gt;&lt;font color=&quot;#000000&quot;&gt;- システムは、「サインアップ」画面を表示する&lt;/font&gt;&lt;/div&gt;&lt;div&gt;&lt;font color=&quot;#000000&quot;&gt;- ユーザーは、ユーザー名を入力する&lt;/font&gt;&lt;/div&gt;&lt;div&gt;&lt;font color=&quot;#000000&quot;&gt;- システムは、「サインアップ確認」画面を表示する&lt;/font&gt;&lt;/div&gt;&lt;div&gt;&lt;font color=&quot;#000000&quot;&gt;- ユーザーは、「確認&lt;/font&gt;&lt;span style=&quot;color: rgb(63, 63, 63);&quot;&gt;」ボタンを押す&lt;/span&gt;&lt;/div&gt;&lt;div&gt;&lt;span style=&quot;color: rgb(63, 63, 63);&quot;&gt;- システムは、ユーザーをセッションに保存する。「UC: ねこと出会う」をinvokeする&lt;/span&gt;&lt;/div&gt;&lt;div&gt;&lt;span style=&quot;color: rgb(63, 63, 63);&quot;&gt;&lt;br&gt;&lt;/span&gt;&lt;/div&gt;&lt;div&gt;&lt;span style=&quot;color: rgb(63, 63, 63);&quot;&gt;&amp;nbsp;**代替コース**&amp;nbsp;&lt;/span&gt;&lt;/div&gt;&lt;div&gt;- ユーザーはログイン済みである：ログイン済みである旨とともにホーム画面を表示する&lt;/div&gt;&lt;div&gt;-&amp;nbsp;&lt;/div&gt;" style="shape=note;whiteSpace=wrap;html=1;backgroundOutline=1;darkOpacity=0.05;align=left;labelBackgroundColor=none;" parent="1" vertex="1">
                    <mxGeometry x="40.41" y="-1766.92" width="327.53" height="346.92" as="geometry"/>
                </mxCell>
                <mxCell id="404" style="edgeStyle=orthogonalEdgeStyle;shape=connector;curved=1;rounded=1;html=1;strokeColor=default;align=center;verticalAlign=middle;fontFamily=Helvetica;fontSize=11;fontColor=default;labelBackgroundColor=default;endArrow=classic;" parent="1" source="396" target="397" edge="1">
                    <mxGeometry relative="1" as="geometry"/>
                </mxCell>
                <mxCell id="396" value="ユーザー" style="shape=umlActor;verticalLabelPosition=bottom;verticalAlign=top;html=1;fontFamily=Helvetica;fontSize=11;fontColor=default;labelBackgroundColor=default;" parent="1" vertex="1">
                    <mxGeometry x="451" y="-1640" width="30" height="60" as="geometry"/>
                </mxCell>
                <mxCell id="403" value="ユーザー名を入力する" style="edgeStyle=orthogonalEdgeStyle;shape=connector;curved=1;rounded=1;html=1;strokeColor=default;align=center;verticalAlign=middle;fontFamily=Helvetica;fontSize=11;fontColor=default;labelBackgroundColor=default;endArrow=classic;" parent="1" source="397" target="400" edge="1">
                    <mxGeometry relative="1" as="geometry"/>
                </mxCell>
                <mxCell id="397" value="&lt;div&gt;&lt;span style=&quot;background-color: light-dark(#ffffff, var(--ge-dark-color, #121212));&quot;&gt;「サインアップ」&lt;/span&gt;&lt;span style=&quot;background-color: light-dark(#ffffff, var(--ge-dark-color, #121212)); color: rgb(63, 63, 63);&quot;&gt;画面&lt;/span&gt;&lt;/div&gt;" style="shape=umlBoundary;whiteSpace=wrap;html=1;fontFamily=Helvetica;fontSize=11;fontColor=default;labelBackgroundColor=default;" parent="1" vertex="1">
                    <mxGeometry x="570" y="-1640" width="100" height="80" as="geometry"/>
                </mxCell>
                <mxCell id="399" style="edgeStyle=orthogonalEdgeStyle;shape=connector;curved=1;rounded=1;html=1;strokeColor=default;align=center;verticalAlign=middle;fontFamily=Helvetica;fontSize=11;fontColor=default;labelBackgroundColor=default;endArrow=classic;" parent="1" source="398" target="397" edge="1">
                    <mxGeometry relative="1" as="geometry"/>
                </mxCell>
                <mxCell id="398" value="表示する" style="ellipse;shape=umlControl;whiteSpace=wrap;html=1;fontFamily=Helvetica;fontSize=11;fontColor=default;labelBackgroundColor=default;" parent="1" vertex="1">
                    <mxGeometry x="730" y="-1730" width="70" height="80" as="geometry"/>
                </mxCell>
                <mxCell id="402" style="edgeStyle=orthogonalEdgeStyle;shape=connector;curved=1;rounded=1;html=1;strokeColor=default;align=center;verticalAlign=middle;fontFamily=Helvetica;fontSize=11;fontColor=default;labelBackgroundColor=default;endArrow=classic;" parent="1" source="400" target="401" edge="1">
                    <mxGeometry relative="1" as="geometry">
                        <Array as="points">
                            <mxPoint x="791" y="-1470"/>
                        </Array>
                    </mxGeometry>
                </mxCell>
                <mxCell id="400" value="入力内容を表示する" style="ellipse;shape=umlControl;whiteSpace=wrap;html=1;fontFamily=Helvetica;fontSize=11;fontColor=default;labelBackgroundColor=default;" parent="1" vertex="1">
                    <mxGeometry x="845" y="-1640" width="70" height="80" as="geometry"/>
                </mxCell>
                <mxCell id="406" style="edgeStyle=orthogonalEdgeStyle;shape=connector;curved=1;rounded=1;html=1;strokeColor=default;align=center;verticalAlign=middle;fontFamily=Helvetica;fontSize=11;fontColor=default;labelBackgroundColor=default;endArrow=classic;" parent="1" source="401" target="405" edge="1">
                    <mxGeometry relative="1" as="geometry"/>
                </mxCell>
                <mxCell id="401" value="&lt;div&gt;&lt;span style=&quot;background-color: light-dark(#ffffff, var(--ge-dark-color, #121212));&quot;&gt;「サインアップ確認」&lt;/span&gt;&lt;span style=&quot;background-color: light-dark(#ffffff, var(--ge-dark-color, #121212)); color: rgb(63, 63, 63);&quot;&gt;画面&lt;/span&gt;&lt;/div&gt;" style="shape=umlBoundary;whiteSpace=wrap;html=1;fontFamily=Helvetica;fontSize=11;fontColor=default;labelBackgroundColor=default;" parent="1" vertex="1">
                    <mxGeometry x="565" y="-1510" width="100" height="80" as="geometry"/>
                </mxCell>
                <mxCell id="408" style="edgeStyle=orthogonalEdgeStyle;shape=connector;curved=1;rounded=1;html=1;strokeColor=default;align=center;verticalAlign=middle;fontFamily=Helvetica;fontSize=11;fontColor=default;labelBackgroundColor=default;endArrow=classic;" parent="1" source="405" target="407" edge="1">
                    <mxGeometry relative="1" as="geometry"/>
                </mxCell>
                <mxCell id="410" style="edgeStyle=orthogonalEdgeStyle;shape=connector;curved=1;rounded=1;html=1;strokeColor=default;align=center;verticalAlign=middle;fontFamily=Helvetica;fontSize=11;fontColor=default;labelBackgroundColor=default;endArrow=classic;" parent="1" source="405" target="409" edge="1">
                    <mxGeometry relative="1" as="geometry"/>
                </mxCell>
                <mxCell id="405" value="ユーザーをセッションに保存する" style="ellipse;shape=umlControl;whiteSpace=wrap;html=1;fontFamily=Helvetica;fontSize=11;fontColor=default;labelBackgroundColor=default;" parent="1" vertex="1">
                    <mxGeometry x="850" y="-1490" width="70" height="80" as="geometry"/>
                </mxCell>
                <mxCell id="407" value="ユーザー" style="ellipse;shape=umlEntity;whiteSpace=wrap;html=1;fontFamily=Helvetica;fontSize=11;fontColor=default;labelBackgroundColor=default;" parent="1" vertex="1">
                    <mxGeometry x="1023" y="-1490" width="80" height="80" as="geometry"/>
                </mxCell>
                <mxCell id="409" value="UC: ねこと出会う" style="ellipse;whiteSpace=wrap;html=1;fontFamily=Helvetica;fontSize=11;fontColor=default;labelBackgroundColor=default;" parent="1" vertex="1">
                    <mxGeometry x="665" y="-1330" width="140" height="70" as="geometry"/>
                </mxCell>
                <mxCell id="415" value="Yes" style="edgeStyle=orthogonalEdgeStyle;shape=connector;curved=1;rounded=1;html=1;strokeColor=default;align=center;verticalAlign=middle;fontFamily=Helvetica;fontSize=11;fontColor=default;labelBackgroundColor=default;endArrow=classic;" parent="1" source="411" target="398" edge="1">
                    <mxGeometry relative="1" as="geometry"/>
                </mxCell>
                <mxCell id="417" style="edgeStyle=orthogonalEdgeStyle;shape=connector;curved=1;rounded=1;html=1;strokeColor=default;align=center;verticalAlign=middle;fontFamily=Helvetica;fontSize=11;fontColor=default;labelBackgroundColor=default;endArrow=classic;" parent="1" source="420" target="414" edge="1">
                    <mxGeometry relative="1" as="geometry"/>
                </mxCell>
                <mxCell id="411" value="ユーザーは未ログインか？" style="ellipse;shape=umlControl;whiteSpace=wrap;html=1;fontFamily=Helvetica;fontSize=11;fontColor=default;labelBackgroundColor=default;" parent="1" vertex="1">
                    <mxGeometry x="565" y="-1790" width="70" height="80" as="geometry"/>
                </mxCell>
                <mxCell id="414" value="&lt;div&gt;ホーム画面&lt;/div&gt;" style="shape=umlBoundary;whiteSpace=wrap;html=1;fontFamily=Helvetica;fontSize=11;labelBackgroundColor=none;fillColor=#fff2cc;strokeColor=#d6b656;" parent="1" vertex="1">
                    <mxGeometry x="960" y="-1800" width="100" height="80" as="geometry"/>
                </mxCell>
                <mxCell id="421" value="No" style="edgeStyle=orthogonalEdgeStyle;shape=connector;curved=1;rounded=1;html=1;strokeColor=default;align=center;verticalAlign=middle;fontFamily=Helvetica;fontSize=11;fontColor=default;labelBackgroundColor=default;endArrow=classic;" parent="1" source="411" target="420" edge="1">
                    <mxGeometry relative="1" as="geometry">
                        <mxPoint x="635" y="-1750" as="sourcePoint"/>
                        <mxPoint x="875" y="-1750" as="targetPoint"/>
                    </mxGeometry>
                </mxCell>
                <mxCell id="420" value="ログイン済みである旨とともに表示する" style="ellipse;shape=umlControl;whiteSpace=wrap;html=1;fontFamily=Helvetica;fontSize=11;labelBackgroundColor=none;fillColor=#fff2cc;strokeColor=#d6b656;" parent="1" vertex="1">
                    <mxGeometry x="780" y="-1800" width="70" height="80" as="geometry"/>
                </mxCell>
                <mxCell id="422" value="" style="ellipse;shape=ellipse;fillColor=#000000;strokeColor=#000000;labelBackgroundColor=none;" parent="1" vertex="1">
                    <mxGeometry x="1535" y="-1750" width="30" height="30" as="geometry"/>
                </mxCell>
                <mxCell id="427" value="" style="edgeStyle=orthogonalEdgeStyle;shape=connector;curved=1;rounded=1;html=1;strokeColor=default;align=center;verticalAlign=middle;fontFamily=Helvetica;fontSize=11;fontColor=default;labelBackgroundColor=default;endArrow=classic;" parent="1" source="424" target="426" edge="1">
                    <mxGeometry relative="1" as="geometry"/>
                </mxCell>
                <mxCell id="431" value="ログイン" style="edgeLabel;html=1;align=center;verticalAlign=middle;resizable=0;points=[];fontFamily=Helvetica;fontSize=11;fontColor=default;labelBackgroundColor=default;" parent="427" vertex="1" connectable="0">
                    <mxGeometry x="-0.2532" relative="1" as="geometry">
                        <mxPoint y="67" as="offset"/>
                    </mxGeometry>
                </mxCell>
                <mxCell id="429" style="edgeStyle=orthogonalEdgeStyle;shape=connector;curved=1;rounded=1;html=1;strokeColor=default;align=center;verticalAlign=middle;fontFamily=Helvetica;fontSize=11;fontColor=default;labelBackgroundColor=default;endArrow=classic;" parent="1" source="424" target="433" edge="1">
                    <mxGeometry relative="1" as="geometry">
                        <mxPoint x="1740.0000000000005" y="-1610" as="targetPoint"/>
                    </mxGeometry>
                </mxCell>
                <mxCell id="432" value="サインアップ" style="edgeLabel;html=1;align=center;verticalAlign=middle;resizable=0;points=[];fontFamily=Helvetica;fontSize=11;fontColor=default;labelBackgroundColor=default;" parent="429" vertex="1" connectable="0">
                    <mxGeometry x="-0.2159" y="-3" relative="1" as="geometry">
                        <mxPoint x="-11" y="37" as="offset"/>
                    </mxGeometry>
                </mxCell>
                <mxCell id="436" style="edgeStyle=orthogonalEdgeStyle;shape=connector;curved=1;rounded=1;html=1;strokeColor=default;align=center;verticalAlign=middle;fontFamily=Helvetica;fontSize=11;fontColor=default;labelBackgroundColor=default;endArrow=classic;" parent="1" source="424" target="433" edge="1">
                    <mxGeometry relative="1" as="geometry">
                        <Array as="points">
                            <mxPoint x="1550" y="-1440"/>
                        </Array>
                    </mxGeometry>
                </mxCell>
                <mxCell id="437" value="ログイン" style="edgeLabel;html=1;align=center;verticalAlign=middle;resizable=0;points=[];fontFamily=Helvetica;fontSize=11;fontColor=default;labelBackgroundColor=default;" parent="436" vertex="1" connectable="0">
                    <mxGeometry x="-0.2219" y="28" relative="1" as="geometry">
                        <mxPoint y="1" as="offset"/>
                    </mxGeometry>
                </mxCell>
                <mxCell id="424" value="未ログイン&lt;br&gt;（ログイン画面）" style="rounded=1;whiteSpace=wrap;html=1;labelBackgroundColor=none;" parent="1" vertex="1">
                    <mxGeometry x="1490" y="-1680" width="120" height="60" as="geometry"/>
                </mxCell>
                <mxCell id="425" value="" style="labelBackgroundColor=none;" parent="1" source="422" target="424" edge="1">
                    <mxGeometry relative="1" as="geometry">
                        <mxPoint x="1575" y="-1515.4937931034483" as="sourcePoint"/>
                    </mxGeometry>
                </mxCell>
                <mxCell id="439" value="" style="edgeStyle=orthogonalEdgeStyle;shape=connector;curved=1;rounded=1;html=1;strokeColor=default;align=center;verticalAlign=middle;fontFamily=Helvetica;fontSize=11;fontColor=default;labelBackgroundColor=default;endArrow=classic;" parent="1" source="426" target="438" edge="1">
                    <mxGeometry relative="1" as="geometry"/>
                </mxCell>
                <mxCell id="465" value="ログアウト" style="edgeStyle=orthogonalEdgeStyle;html=1;curved=1;" edge="1" parent="1" source="426" target="424">
                    <mxGeometry relative="1" as="geometry">
                        <Array as="points">
                            <mxPoint x="1400" y="-1315"/>
                            <mxPoint x="1400" y="-1650"/>
                        </Array>
                    </mxGeometry>
                </mxCell>
                <mxCell id="426" value="ログイン中&lt;br&gt;（ホーム画面）" style="rounded=1;whiteSpace=wrap;html=1;labelBackgroundColor=none;" parent="1" vertex="1">
                    <mxGeometry x="1490" y="-1345" width="120" height="60" as="geometry"/>
                </mxCell>
                <mxCell id="435" style="edgeStyle=orthogonalEdgeStyle;shape=connector;curved=1;rounded=1;html=1;strokeColor=default;align=center;verticalAlign=middle;fontFamily=Helvetica;fontSize=11;fontColor=default;labelBackgroundColor=default;endArrow=classic;" parent="1" source="433" target="426" edge="1">
                    <mxGeometry relative="1" as="geometry">
                        <Array as="points">
                            <mxPoint x="1740" y="-1315"/>
                        </Array>
                    </mxGeometry>
                </mxCell>
                <mxCell id="466" value="ログアウト" style="shape=connector;rounded=1;html=1;strokeColor=default;align=center;verticalAlign=middle;fontFamily=Helvetica;fontSize=11;fontColor=default;labelBackgroundColor=default;endArrow=classic;" edge="1" parent="1" source="433" target="424">
                    <mxGeometry relative="1" as="geometry"/>
                </mxCell>
                <mxCell id="433" value="仮ログイン中（ねこと出会う前）" style="rounded=1;whiteSpace=wrap;html=1;labelBackgroundColor=none;" parent="1" vertex="1">
                    <mxGeometry x="1680" y="-1470" width="120" height="60" as="geometry"/>
                </mxCell>
                <mxCell id="441" value="終了" style="edgeStyle=orthogonalEdgeStyle;shape=connector;curved=1;rounded=1;html=1;strokeColor=default;align=center;verticalAlign=middle;fontFamily=Helvetica;fontSize=11;fontColor=default;labelBackgroundColor=default;endArrow=classic;" parent="1" source="438" target="426" edge="1">
                    <mxGeometry relative="1" as="geometry">
                        <Array as="points">
                            <mxPoint x="1420" y="-1180"/>
                            <mxPoint x="1420" y="-1315"/>
                        </Array>
                    </mxGeometry>
                </mxCell>
                <mxCell id="438" value="各ゲーム中" style="rounded=1;whiteSpace=wrap;html=1;labelBackgroundColor=none;" parent="1" vertex="1">
                    <mxGeometry x="1490" y="-1210" width="120" height="60" as="geometry"/>
                </mxCell>
                <mxCell id="440" value="モード選択等" style="edgeStyle=orthogonalEdgeStyle;shape=connector;curved=1;rounded=1;html=1;strokeColor=default;align=center;verticalAlign=middle;fontFamily=Helvetica;fontSize=11;fontColor=default;labelBackgroundColor=default;endArrow=classic;" parent="1" source="438" target="438" edge="1">
                    <mxGeometry y="30" relative="1" as="geometry">
                        <mxPoint as="offset"/>
                    </mxGeometry>
                </mxCell>
                <mxCell id="442" value="ログアウト" style="shape=folder;fontStyle=1;tabWidth=110;tabHeight=30;tabPosition=left;html=1;boundedLbl=1;labelInHeader=1;container=0;collapsible=0;whiteSpace=wrap;labelBackgroundColor=none;" vertex="1" parent="1">
                    <mxGeometry x="10" y="-2740" width="1050" height="870" as="geometry"/>
                </mxCell>
                <mxCell id="443" value="&lt;div&gt;&lt;font color=&quot;#000000&quot;&gt;#### UC: ログアウトする&lt;/font&gt;&lt;/div&gt;&lt;div&gt;&lt;font color=&quot;#000000&quot;&gt;- システムは、「ホーム画面」を表示する&lt;/font&gt;&lt;/div&gt;&lt;div&gt;&lt;font color=&quot;#000000&quot;&gt;- ユーザーは、「ログアウト」ボタンを押す&lt;/font&gt;&lt;/div&gt;&lt;div&gt;&lt;font color=&quot;#000000&quot;&gt;- システムは、セッションを破棄し、ログイン画面を表示する&lt;/font&gt;&lt;/div&gt;&lt;div&gt;&lt;span style=&quot;color: rgb(63, 63, 63);&quot;&gt;&lt;br&gt;&lt;/span&gt;&lt;/div&gt;&lt;div&gt;&lt;span style=&quot;color: rgb(63, 63, 63);&quot;&gt;&amp;nbsp;**代替コース**&amp;nbsp;&lt;/span&gt;&lt;/div&gt;&lt;div&gt;&lt;span style=&quot;color: rgb(63, 63, 63);&quot;&gt;- ユーザーは、ホーム画面以外の「ログアウト」ボタンを押す：同じ処理をする&lt;/span&gt;&lt;span style=&quot;color: rgb(63, 63, 63); background-color: transparent;&quot;&gt;（セッションを破棄し、ログイン画面を表示する）&lt;/span&gt;&lt;/div&gt;&lt;div&gt;- ユーザーは未ログインである：同じ処理をする（セッションを破棄し、ログイン画面を表示する）&lt;/div&gt;&lt;div&gt;- ユーザーはログアウトボタンは押していないが、ログイン後、一定時間が経過する：同じ処理をする&lt;/div&gt;" style="shape=note;whiteSpace=wrap;html=1;backgroundOutline=1;darkOpacity=0.05;align=left;labelBackgroundColor=none;" vertex="1" parent="1">
                    <mxGeometry x="30.000000000000004" y="-2690" width="327.53" height="346.92" as="geometry"/>
                </mxCell>
                <mxCell id="456" style="edgeStyle=none;html=1;" edge="1" parent="1" source="444" target="445">
                    <mxGeometry relative="1" as="geometry"/>
                </mxCell>
                <mxCell id="444" value="ユーザー" style="shape=umlActor;verticalLabelPosition=bottom;verticalAlign=top;html=1;" vertex="1" parent="1">
                    <mxGeometry x="395" y="-2550" width="30" height="60" as="geometry"/>
                </mxCell>
                <mxCell id="445" value="ホーム画面" style="shape=umlBoundary;whiteSpace=wrap;html=1;" vertex="1" parent="1">
                    <mxGeometry x="490" y="-2550" width="100" height="80" as="geometry"/>
                </mxCell>
                <mxCell id="447" style="edgeStyle=none;html=1;" edge="1" parent="1" source="446" target="445">
                    <mxGeometry relative="1" as="geometry"/>
                </mxCell>
                <mxCell id="446" value="表示する" style="ellipse;shape=umlControl;whiteSpace=wrap;html=1;" vertex="1" parent="1">
                    <mxGeometry x="490" y="-2680" width="70" height="80" as="geometry"/>
                </mxCell>
                <mxCell id="448" value="セッション" style="ellipse;shape=umlEntity;whiteSpace=wrap;html=1;" vertex="1" parent="1">
                    <mxGeometry x="645" y="-2440" width="80" height="80" as="geometry"/>
                </mxCell>
                <mxCell id="450" style="edgeStyle=none;html=1;" edge="1" parent="1" source="449" target="448">
                    <mxGeometry relative="1" as="geometry"/>
                </mxCell>
                <mxCell id="453" value="" style="edgeStyle=none;html=1;" edge="1" parent="1" source="449" target="452">
                    <mxGeometry relative="1" as="geometry"/>
                </mxCell>
                <mxCell id="449" value="セッションを破棄する" style="ellipse;shape=umlControl;whiteSpace=wrap;html=1;" vertex="1" parent="1">
                    <mxGeometry x="780" y="-2550" width="70" height="80" as="geometry"/>
                </mxCell>
                <mxCell id="451" style="edgeStyle=none;html=1;" edge="1" parent="1" source="445" target="449">
                    <mxGeometry relative="1" as="geometry">
                        <mxPoint x="700" y="-2510" as="targetPoint"/>
                    </mxGeometry>
                </mxCell>
                <mxCell id="457" value="「ログアウト」ボタンを押す" style="edgeLabel;html=1;align=center;verticalAlign=middle;resizable=0;points=[];" vertex="1" connectable="0" parent="451">
                    <mxGeometry x="0.0475" relative="1" as="geometry">
                        <mxPoint as="offset"/>
                    </mxGeometry>
                </mxCell>
                <mxCell id="455" style="edgeStyle=orthogonalEdgeStyle;html=1;curved=1;" edge="1" parent="1" source="452" target="454">
                    <mxGeometry relative="1" as="geometry">
                        <Array as="points">
                            <mxPoint x="940" y="-2300"/>
                        </Array>
                    </mxGeometry>
                </mxCell>
                <mxCell id="452" value="表示する" style="ellipse;shape=umlControl;whiteSpace=wrap;html=1;" vertex="1" parent="1">
                    <mxGeometry x="905" y="-2550" width="70" height="80" as="geometry"/>
                </mxCell>
                <mxCell id="454" value="サインアップ画面" style="shape=umlBoundary;whiteSpace=wrap;html=1;" vertex="1" parent="1">
                    <mxGeometry x="495" y="-2345" width="100" height="80" as="geometry"/>
                </mxCell>
                <mxCell id="460" value="ホーム画面以外" style="shape=umlBoundary;whiteSpace=wrap;html=1;" vertex="1" parent="1">
                    <mxGeometry x="695" y="-2690" width="100" height="80" as="geometry"/>
                </mxCell>
                <mxCell id="461" style="edgeStyle=none;html=1;" edge="1" parent="1" source="462" target="460">
                    <mxGeometry relative="1" as="geometry"/>
                </mxCell>
                <mxCell id="462" value="表示する" style="ellipse;shape=umlControl;whiteSpace=wrap;html=1;" vertex="1" parent="1">
                    <mxGeometry x="575" y="-2710" width="70" height="80" as="geometry"/>
                </mxCell>
                <mxCell id="463" style="edgeStyle=none;html=1;" edge="1" parent="1" source="460" target="449">
                    <mxGeometry relative="1" as="geometry">
                        <mxPoint x="600" y="-2500" as="sourcePoint"/>
                        <mxPoint x="790" y="-2500" as="targetPoint"/>
                    </mxGeometry>
                </mxCell>
                <mxCell id="464" value="「ログアウト」ボタンを押す" style="edgeLabel;html=1;align=center;verticalAlign=middle;resizable=0;points=[];" vertex="1" connectable="0" parent="463">
                    <mxGeometry x="0.0475" relative="1" as="geometry">
                        <mxPoint as="offset"/>
                    </mxGeometry>
                </mxCell>
                <mxCell id="467" value="管理者向け" style="shape=folder;fontStyle=1;tabWidth=110;tabHeight=30;tabPosition=left;html=1;boundedLbl=1;labelInHeader=1;container=0;collapsible=0;whiteSpace=wrap;labelBackgroundColor=none;" vertex="1" parent="1">
                    <mxGeometry x="3500" y="-1670" width="1200" height="430" as="geometry"/>
                </mxCell>
                <mxCell id="468" value="&lt;div&gt;&lt;span style=&quot;&quot;&gt;#### UC: アクセス記録を閲覧する&lt;/span&gt;&lt;/div&gt;&lt;div&gt;&lt;span style=&quot;&quot;&gt;- 管理者は、マネージドなストレージサービスにアクセスし、アクセス記録を閲覧する&lt;/span&gt;&lt;/div&gt;&lt;div&gt;&lt;span style=&quot;&quot;&gt;※閲覧機能は標準機能を用いるため、開発のスコープ外とする&lt;/span&gt;&lt;/div&gt;" style="shape=note;whiteSpace=wrap;html=1;backgroundOutline=1;darkOpacity=0.05;align=left;labelBackgroundColor=none;" vertex="1" parent="1">
                    <mxGeometry x="3530" y="-1620" width="336.67" height="220" as="geometry"/>
                </mxCell>
                <mxCell id="474" style="edgeStyle=orthogonalEdgeStyle;shape=connector;curved=1;rounded=1;html=1;strokeColor=default;align=center;verticalAlign=middle;fontFamily=Helvetica;fontSize=11;fontColor=default;labelBackgroundColor=default;endArrow=classic;" edge="1" parent="1" source="469" target="471">
                    <mxGeometry relative="1" as="geometry"/>
                </mxCell>
                <mxCell id="469" value="管理者" style="shape=umlActor;verticalLabelPosition=bottom;verticalAlign=top;html=1;fontFamily=Helvetica;fontSize=11;fontColor=default;labelBackgroundColor=default;" vertex="1" parent="1">
                    <mxGeometry x="3940" y="-1460" width="30" height="60" as="geometry"/>
                </mxCell>
                <mxCell id="473" style="edgeStyle=orthogonalEdgeStyle;shape=connector;curved=1;rounded=1;html=1;strokeColor=default;align=center;verticalAlign=middle;fontFamily=Helvetica;fontSize=11;fontColor=default;labelBackgroundColor=default;endArrow=classic;dashed=1;dashPattern=1 4;" edge="1" parent="1" source="471" target="472">
                    <mxGeometry relative="1" as="geometry"/>
                </mxCell>
                <mxCell id="471" value="ストレージサービスの画面" style="shape=umlBoundary;whiteSpace=wrap;html=1;fontFamily=Helvetica;fontSize=11;fontColor=default;labelBackgroundColor=default;" vertex="1" parent="1">
                    <mxGeometry x="4060" y="-1470" width="100" height="80" as="geometry"/>
                </mxCell>
                <mxCell id="472" value="アクセス記録" style="ellipse;shape=umlControl;whiteSpace=wrap;html=1;fontFamily=Helvetica;fontSize=11;fontColor=default;labelBackgroundColor=default;" vertex="1" parent="1">
                    <mxGeometry x="4260" y="-1470" width="70" height="80" as="geometry"/>
                </mxCell>
                <mxCell id="484" value="" style="edgeStyle=orthogonalEdgeStyle;shape=connector;curved=1;rounded=1;html=1;strokeColor=default;align=center;verticalAlign=middle;fontFamily=Helvetica;fontSize=11;fontColor=default;labelBackgroundColor=none;endArrow=classic;" edge="1" parent="1" source="182" target="482">
                    <mxGeometry relative="1" as="geometry">
                        <mxPoint x="690" y="1930" as="targetPoint"/>
                        <mxPoint x="1058" y="1860" as="sourcePoint"/>
                    </mxGeometry>
                </mxCell>
                <mxCell id="485" value="Yes" style="edgeLabel;html=1;align=center;verticalAlign=middle;resizable=0;points=[];fontFamily=Helvetica;fontSize=11;fontColor=default;labelBackgroundColor=default;" vertex="1" connectable="0" parent="484">
                    <mxGeometry x="-0.0022" y="-3" relative="1" as="geometry">
                        <mxPoint as="offset"/>
                    </mxGeometry>
                </mxCell>
                <mxCell id="482" value="表示する" style="ellipse;shape=umlControl;whiteSpace=wrap;html=1;fontFamily=Helvetica;fontSize=11;fontColor=default;labelBackgroundColor=none;" vertex="1" parent="1">
                    <mxGeometry x="835" y="1870" width="70" height="80" as="geometry"/>
                </mxCell>
                <mxCell id="488" value="" style="ellipse;shape=ellipse;fillColor=#000000;strokeColor=#000000;labelBackgroundColor=none;" vertex="1" parent="1">
                    <mxGeometry x="1647.5" y="-836.92" width="30" height="30" as="geometry"/>
                </mxCell>
                <mxCell id="495" value="" style="edgeStyle=orthogonalEdgeStyle;shape=connector;curved=1;rounded=1;html=1;strokeColor=default;align=center;verticalAlign=middle;fontFamily=Helvetica;fontSize=11;fontColor=default;labelBackgroundColor=default;endArrow=classic;" edge="1" parent="1" source="489" target="494">
                    <mxGeometry relative="1" as="geometry"/>
                </mxCell>
                <mxCell id="500" value="&lt;div&gt;&lt;span style=&quot;background-color: light-dark(#ffffff, var(--ge-dark-color, #121212));&quot;&gt;ねこと出会う済の場合&lt;/span&gt;&lt;/div&gt;" style="edgeStyle=orthogonalEdgeStyle;shape=connector;curved=1;rounded=1;html=1;strokeColor=default;align=center;verticalAlign=middle;fontFamily=Helvetica;fontSize=11;fontColor=default;labelBackgroundColor=default;endArrow=classic;" edge="1" parent="1" target="498">
                    <mxGeometry relative="1" as="geometry">
                        <mxPoint x="1662" y="-820" as="sourcePoint"/>
                        <Array as="points">
                            <mxPoint x="1390" y="-820"/>
                            <mxPoint x="1390" y="-240"/>
                        </Array>
                    </mxGeometry>
                </mxCell>
                <mxCell id="505" value="" style="edgeStyle=orthogonalEdgeStyle;shape=connector;curved=1;rounded=1;html=1;strokeColor=default;align=center;verticalAlign=middle;fontFamily=Helvetica;fontSize=11;fontColor=default;labelBackgroundColor=default;endArrow=classic;" edge="1" parent="1" source="489" target="494">
                    <mxGeometry relative="1" as="geometry"/>
                </mxCell>
                <mxCell id="507" value="ねこの種の&lt;div&gt;取得エラー&lt;/div&gt;" style="edgeStyle=orthogonalEdgeStyle;shape=connector;curved=1;rounded=1;html=1;strokeColor=default;align=center;verticalAlign=middle;fontFamily=Helvetica;fontSize=11;fontColor=default;labelBackgroundColor=default;endArrow=classic;" edge="1" parent="1" source="489" target="506">
                    <mxGeometry relative="1" as="geometry"/>
                </mxCell>
                <mxCell id="489" value="仮ログイン中" style="rounded=1;whiteSpace=wrap;html=1;labelBackgroundColor=none;" vertex="1" parent="1">
                    <mxGeometry x="1602.5" y="-689.9999999999999" width="120" height="60" as="geometry"/>
                </mxCell>
                <mxCell id="490" style="labelBackgroundColor=none;" edge="1" parent="1" source="488" target="489">
                    <mxGeometry relative="1" as="geometry"/>
                </mxCell>
                <mxCell id="503" value="ねこと出会う済の場合" style="edgeStyle=orthogonalEdgeStyle;shape=connector;curved=1;rounded=1;html=1;strokeColor=default;align=center;verticalAlign=middle;fontFamily=Helvetica;fontSize=11;fontColor=default;labelBackgroundColor=default;endArrow=classic;" edge="1" parent="1" source="491" target="498">
                    <mxGeometry relative="1" as="geometry">
                        <Array as="points">
                            <mxPoint x="1980" y="-720"/>
                            <mxPoint x="1980" y="-240"/>
                        </Array>
                    </mxGeometry>
                </mxCell>
                <mxCell id="491" value="未ログイン" style="rounded=1;whiteSpace=wrap;html=1;labelBackgroundColor=none;" vertex="1" parent="1">
                    <mxGeometry x="1797.5" y="-749.9999999999999" width="120" height="60" as="geometry"/>
                </mxCell>
                <mxCell id="492" value="未ログイン" style="labelBackgroundColor=none;" edge="1" parent="1" source="488" target="491">
                    <mxGeometry relative="1" as="geometry">
                        <mxPoint x="1687.5" y="-602.4137931034483" as="sourcePoint"/>
                    </mxGeometry>
                </mxCell>
                <mxCell id="493" value="ログイン成功" style="labelBackgroundColor=none;" edge="1" parent="1" source="491" target="489">
                    <mxGeometry relative="1" as="geometry"/>
                </mxCell>
                <mxCell id="497" value="" style="edgeStyle=orthogonalEdgeStyle;shape=connector;curved=1;rounded=1;html=1;strokeColor=default;align=center;verticalAlign=middle;fontFamily=Helvetica;fontSize=11;fontColor=default;labelBackgroundColor=default;endArrow=classic;" edge="1" parent="1" source="494" target="496">
                    <mxGeometry relative="1" as="geometry"/>
                </mxCell>
                <mxCell id="501" value="途中離脱" style="edgeStyle=orthogonalEdgeStyle;shape=connector;curved=1;rounded=1;html=1;strokeColor=default;align=center;verticalAlign=middle;fontFamily=Helvetica;fontSize=11;fontColor=default;labelBackgroundColor=default;endArrow=classic;" edge="1" parent="1" source="494" target="489">
                    <mxGeometry relative="1" as="geometry">
                        <Array as="points">
                            <mxPoint x="1790" y="-520"/>
                            <mxPoint x="1790" y="-660"/>
                        </Array>
                    </mxGeometry>
                </mxCell>
                <mxCell id="494" value="ねこ選択中" style="rounded=1;whiteSpace=wrap;html=1;labelBackgroundColor=none;" vertex="1" parent="1">
                    <mxGeometry x="1602.5" y="-549.9999999999999" width="120" height="60" as="geometry"/>
                </mxCell>
                <mxCell id="499" value="保存" style="edgeStyle=orthogonalEdgeStyle;shape=connector;curved=1;rounded=1;html=1;strokeColor=default;align=center;verticalAlign=middle;fontFamily=Helvetica;fontSize=11;fontColor=default;labelBackgroundColor=default;endArrow=classic;" edge="1" parent="1" source="496" target="498">
                    <mxGeometry relative="1" as="geometry"/>
                </mxCell>
                <mxCell id="502" value="途中離脱" style="edgeStyle=orthogonalEdgeStyle;shape=connector;curved=1;rounded=1;html=1;strokeColor=default;align=center;verticalAlign=middle;fontFamily=Helvetica;fontSize=11;fontColor=default;labelBackgroundColor=default;endArrow=classic;" edge="1" parent="1" source="496" target="489">
                    <mxGeometry relative="1" as="geometry">
                        <Array as="points">
                            <mxPoint x="1890" y="-380"/>
                            <mxPoint x="1890" y="-660"/>
                        </Array>
                    </mxGeometry>
                </mxCell>
                <mxCell id="496" value="ねこプロフィール設定中" style="rounded=1;whiteSpace=wrap;html=1;labelBackgroundColor=none;" vertex="1" parent="1">
                    <mxGeometry x="1602.5" y="-409.9999999999999" width="120" height="60" as="geometry"/>
                </mxCell>
                <mxCell id="498" value="ログイン中（各種ゲーム画面利用可能）" style="rounded=1;whiteSpace=wrap;html=1;labelBackgroundColor=none;" vertex="1" parent="1">
                    <mxGeometry x="1602.5" y="-269.9999999999999" width="120" height="60" as="geometry"/>
                </mxCell>
                <mxCell id="506" value="エラー画面" style="rounded=1;whiteSpace=wrap;html=1;labelBackgroundColor=none;" vertex="1" parent="1">
                    <mxGeometry x="1460" y="-584.9999999999999" width="120" height="60" as="geometry"/>
                </mxCell>
            </root>
        </mxGraphModel>
    </diagram>
</mxfile>